<?xml version="1.0" encoding="UTF-8"?>
<svg xmlns="http://www.w3.org/2000/svg" xmlns:xlink="http://www.w3.org/1999/xlink" width="3750" height="2501.25" viewBox="0 0 3750 2501.25">
<defs>
<linearGradient id="linear-pattern-0" gradientUnits="userSpaceOnUse" x1="0.34715" y1="0" x2="0.870926" y2="0" gradientTransform="matrix(-7357.64, -327.683, -327.683, 7357.64, 6358.07, 1405.52)">
<stop offset="0" stop-color="rgb(98.893738%, 93.260193%, 85.916138%)" stop-opacity="1"/>
<stop offset="0.03125" stop-color="rgb(98.867798%, 93.286133%, 86.045837%)" stop-opacity="1"/>
<stop offset="0.0625" stop-color="rgb(98.815918%, 93.339539%, 86.305237%)" stop-opacity="1"/>
<stop offset="0.09375" stop-color="rgb(98.764038%, 93.391418%, 86.566162%)" stop-opacity="1"/>
<stop offset="0.125" stop-color="rgb(98.712158%, 93.443298%, 86.827087%)" stop-opacity="1"/>
<stop offset="0.15625" stop-color="rgb(98.660278%, 93.495178%, 87.086487%)" stop-opacity="1"/>
<stop offset="0.1875" stop-color="rgb(98.608398%, 93.547058%, 87.347412%)" stop-opacity="1"/>
<stop offset="0.21875" stop-color="rgb(98.554993%, 93.598938%, 87.608337%)" stop-opacity="1"/>
<stop offset="0.25" stop-color="rgb(98.503113%, 93.650818%, 87.869263%)" stop-opacity="1"/>
<stop offset="0.28125" stop-color="rgb(98.451233%, 93.704224%, 88.128662%)" stop-opacity="1"/>
<stop offset="0.3125" stop-color="rgb(98.399353%, 93.756104%, 88.389587%)" stop-opacity="1"/>
<stop offset="0.34375" stop-color="rgb(98.347473%, 93.807983%, 88.650513%)" stop-opacity="1"/>
<stop offset="0.375" stop-color="rgb(98.295593%, 93.859863%, 88.909912%)" stop-opacity="1"/>
<stop offset="0.40625" stop-color="rgb(98.243713%, 93.911743%, 89.170837%)" stop-opacity="1"/>
<stop offset="0.4375" stop-color="rgb(98.190308%, 93.963623%, 89.431763%)" stop-opacity="1"/>
<stop offset="0.46875" stop-color="rgb(98.138428%, 94.015503%, 89.691162%)" stop-opacity="1"/>
<stop offset="0.5" stop-color="rgb(98.086548%, 94.068909%, 89.952087%)" stop-opacity="1"/>
<stop offset="0.53125" stop-color="rgb(98.072815%, 94.081116%, 90.019226%)" stop-opacity="1"/>
<stop offset="0.546875" stop-color="rgb(98.106384%, 94.047546%, 89.852905%)" stop-opacity="1"/>
<stop offset="0.5625" stop-color="rgb(98.147583%, 94.006348%, 89.64386%)" stop-opacity="1"/>
<stop offset="0.578125" stop-color="rgb(98.190308%, 93.963623%, 89.434814%)" stop-opacity="1"/>
<stop offset="0.59375" stop-color="rgb(98.231506%, 93.922424%, 89.225769%)" stop-opacity="1"/>
<stop offset="0.609375" stop-color="rgb(98.274231%, 93.881226%, 89.016724%)" stop-opacity="1"/>
<stop offset="0.625" stop-color="rgb(98.31543%, 93.838501%, 88.807678%)" stop-opacity="1"/>
<stop offset="0.640625" stop-color="rgb(98.356628%, 93.797302%, 88.598633%)" stop-opacity="1"/>
<stop offset="0.65625" stop-color="rgb(98.399353%, 93.754578%, 88.389587%)" stop-opacity="1"/>
<stop offset="0.671875" stop-color="rgb(98.440552%, 93.713379%, 88.180542%)" stop-opacity="1"/>
<stop offset="0.6875" stop-color="rgb(98.483276%, 93.67218%, 87.971497%)" stop-opacity="1"/>
<stop offset="0.703125" stop-color="rgb(98.524475%, 93.629456%, 87.762451%)" stop-opacity="1"/>
<stop offset="0.71875" stop-color="rgb(98.565674%, 93.588257%, 87.553406%)" stop-opacity="1"/>
<stop offset="0.734375" stop-color="rgb(98.608398%, 93.547058%, 87.34436%)" stop-opacity="1"/>
<stop offset="0.75" stop-color="rgb(98.649597%, 93.504333%, 87.135315%)" stop-opacity="1"/>
<stop offset="0.765625" stop-color="rgb(98.692322%, 93.463135%, 86.92627%)" stop-opacity="1"/>
<stop offset="0.78125" stop-color="rgb(98.733521%, 93.42041%, 86.717224%)" stop-opacity="1"/>
<stop offset="0.796875" stop-color="rgb(98.774719%, 93.379211%, 86.508179%)" stop-opacity="1"/>
<stop offset="0.8125" stop-color="rgb(98.817444%, 93.338013%, 86.299133%)" stop-opacity="1"/>
<stop offset="0.828125" stop-color="rgb(98.858643%, 93.295288%, 86.090088%)" stop-opacity="1"/>
<stop offset="0.84375" stop-color="rgb(98.901367%, 93.254089%, 85.881042%)" stop-opacity="1"/>
<stop offset="0.859375" stop-color="rgb(98.942566%, 93.211365%, 85.671997%)" stop-opacity="1"/>
<stop offset="0.875" stop-color="rgb(98.983765%, 93.170166%, 85.462952%)" stop-opacity="1"/>
<stop offset="0.890625" stop-color="rgb(99.026489%, 93.128967%, 85.253906%)" stop-opacity="1"/>
<stop offset="0.90625" stop-color="rgb(99.067688%, 93.086243%, 85.044861%)" stop-opacity="1"/>
<stop offset="0.921875" stop-color="rgb(99.108887%, 93.045044%, 84.835815%)" stop-opacity="1"/>
<stop offset="0.9375" stop-color="rgb(99.151611%, 93.002319%, 84.62677%)" stop-opacity="1"/>
<stop offset="0.953125" stop-color="rgb(99.19281%, 92.961121%, 84.417725%)" stop-opacity="1"/>
<stop offset="0.96875" stop-color="rgb(99.235535%, 92.919922%, 84.208679%)" stop-opacity="1"/>
<stop offset="0.984375" stop-color="rgb(99.276733%, 92.877197%, 83.999634%)" stop-opacity="1"/>
<stop offset="1" stop-color="rgb(99.317932%, 92.835999%, 83.790588%)" stop-opacity="1"/>
</linearGradient>
</defs>

<path fill="none" stroke-width="455.948" stroke-linecap="round" stroke-linejoin="round" stroke="rgb(33.325195%, 59.959412%, 100%)" stroke-opacity="1" stroke-miterlimit="4" d="M 30076.289062 12003.007812 C 30353.984375 12003.007812 30892.695312 12002.8125 30892.695312 12002.8125 C 31867.304688 12006.289062 31868.984375 14065.898438 30922.109375 14063.398438 C 30922.109375 14063.398438 30647.5 14060.585938 29999.492188 14060.585938 C 29833.789062 14060.585938 29753.789062 13955.390625 29754.804688 13833.203125 C 29757.304688 13509.414062 29746.796875 12575.117188 29746.796875 12251.484375 C 29746.796875 12136.289062 29838.59375 12003.007812 29950.117188 12003.007812 Z M 30076.289062 12003.007812 " transform="matrix(0.1, 0, 0, -0.1, 0, 2501.25)"/>
<path fill-rule="nonzero" fill="rgb(39.988708%, 39.988708%, 39.988708%)" fill-opacity="1" d="M 2926.109375 725.929688 L 2926.109375 1775.316406 C 2926.109375 1846.121094 2858.621094 1903.125 2774.789062 1903.125 L 975.203125 1903.125 C 891.378906 1903.125 823.890625 1846.121094 823.890625 1775.316406 L 823.890625 725.929688 C 823.890625 655.128906 891.378906 598.128906 975.203125 598.128906 L 2774.789062 598.128906 C 2858.621094 598.128906 2926.109375 655.128906 2926.109375 725.929688 "/>
<path fill-rule="nonzero" fill="rgb(97.264099%, 97.264099%, 100%)" fill-opacity="1" d="M 2870.628906 775.160156 L 2870.628906 1726.085938 C 2870.628906 1790.25 2806.179688 1841.902344 2726.121094 1841.902344 L 1023.878906 1841.902344 C 943.820312 1841.902344 879.371094 1790.25 879.371094 1726.085938 L 879.371094 775.160156 C 879.371094 711 943.820312 659.351562 1023.878906 659.351562 L 2726.121094 659.351562 C 2806.179688 659.351562 2870.628906 711 2870.628906 775.160156 "/>
<path fill="none" stroke-width="391.107" stroke-linecap="round" stroke-linejoin="round" stroke="rgb(33.325195%, 59.959412%, 100%)" stroke-opacity="1" stroke-miterlimit="4" d="M 17239.21875 10995.507812 C 16284.21875 11950.507812 15527.5 13025.507812 15135.507812 13984.21875 C 14743.515625 14942.8125 14748.398438 15706.40625 15149.101562 16107.109375 C 15549.804688 16507.8125 16313.515625 16512.695312 17272.109375 16120.703125 C 18230.703125 15728.789062 19305.78125 14971.992188 20260.78125 14016.992188 C 21215.78125 13061.992188 21972.5 11986.992188 22364.492188 11028.28125 C 22756.484375 10069.6875 22751.601562 9306.054688 22350.898438 8905.351562 C 21950.195312 8504.6875 21186.484375 8499.804688 20227.890625 8891.757812 C 19269.296875 9283.710938 18194.21875 10040.507812 17239.21875 10995.507812 " transform="matrix(0.1, 0, 0, -0.1, 0, 2501.25)"/>
<path fill="none" stroke-width="391.107" stroke-linecap="round" stroke-linejoin="round" stroke="rgb(33.325195%, 59.959412%, 100%)" stroke-opacity="1" stroke-miterlimit="4" d="M 20886.601562 12506.289062 C 20886.601562 11155.703125 20661.484375 9860.390625 20260.78125 8905.351562 C 19860.117188 7950.351562 19316.71875 7413.828125 18750 7413.828125 C 18183.28125 7413.828125 17639.882812 7950.351562 17239.21875 8905.351562 C 16838.515625 9860.390625 16613.398438 11155.703125 16613.398438 12506.289062 C 16613.398438 13856.796875 16838.515625 15152.109375 17239.21875 16107.109375 C 17639.882812 17062.109375 18183.28125 17598.710938 18750 17598.710938 C 19316.71875 17598.710938 19860.117188 17062.109375 20260.78125 16107.109375 C 20661.484375 15152.109375 20886.601562 13856.796875 20886.601562 12506.289062 " transform="matrix(0.1, 0, 0, -0.1, 0, 2501.25)"/>
<path fill="none" stroke-width="391.107" stroke-linecap="round" stroke-linejoin="round" stroke="rgb(33.325195%, 59.959412%, 100%)" stroke-opacity="1" stroke-miterlimit="4" d="M 18750 10369.6875 C 17399.414062 10369.6875 16104.101562 10594.804688 15149.101562 10995.507812 C 14194.101562 11396.09375 13657.617188 11939.609375 13657.617188 12506.289062 C 13657.617188 13072.890625 14194.101562 13616.289062 15149.101562 14016.992188 C 16104.101562 14417.695312 17399.414062 14642.8125 18750 14642.8125 C 20100.585938 14642.8125 21395.898438 14417.695312 22350.898438 14016.992188 C 23305.898438 13616.289062 23842.382812 13072.890625 23842.382812 12506.289062 C 23842.382812 11939.609375 23305.898438 11396.09375 22350.898438 10995.507812 C 21395.898438 10594.804688 20100.585938 10369.6875 18750 10369.6875 " transform="matrix(0.1, 0, 0, -0.1, 0, 2501.25)"/>
<path fill="none" stroke-width="391.107" stroke-linecap="round" stroke-linejoin="round" stroke="rgb(33.325195%, 59.959412%, 100%)" stroke-opacity="1" stroke-miterlimit="4" d="M 20260.78125 10995.507812 C 21215.78125 11950.507812 21972.5 13025.507812 22364.492188 13984.21875 C 22756.484375 14942.8125 22751.601562 15706.40625 22350.898438 16107.109375 C 21950.195312 16507.8125 21186.484375 16512.695312 20227.890625 16120.703125 C 19269.296875 15728.789062 18194.21875 14971.992188 17239.21875 14016.992188 C 16284.21875 13061.992188 15527.5 11986.992188 15135.507812 11028.28125 C 14743.515625 10069.6875 14748.398438 9306.054688 15149.101562 8905.351562 C 15549.804688 8504.6875 16313.515625 8499.804688 17272.109375 8891.757812 C 18230.703125 9283.710938 19305.78125 10040.507812 20260.78125 10995.507812 " transform="matrix(0.1, 0, 0, -0.1, 0, 2501.25)"/>
<path fill-rule="nonzero" fill="rgb(100%, 44.309998%, 50.193787%)" fill-opacity="1" d="M 2239.191406 896.21875 C 2227.171875 901.191406 2217.578125 910.699219 2212.519531 922.679688 C 2207.460938 934.660156 2207.351562 948.109375 2212.21875 960.089844 C 2222.359375 985.019531 2250.878906 996.859375 2275.910156 986.53125 C 2300.949219 976.191406 2313.019531 947.601562 2302.878906 922.660156 C 2298.011719 910.691406 2288.570312 901.171875 2276.628906 896.21875 C 2264.679688 891.261719 2251.21875 891.261719 2239.191406 896.21875 "/>
<path fill-rule="nonzero" fill="rgb(100%, 44.309998%, 50.193787%)" fill-opacity="1" d="M 1766.550781 1672.300781 C 1754.53125 1677.261719 1744.941406 1686.78125 1739.878906 1698.757812 C 1734.820312 1710.734375 1734.710938 1724.191406 1739.578125 1736.164062 C 1749.71875 1761.101562 1778.238281 1772.9375 1803.269531 1762.601562 C 1828.308594 1752.269531 1840.378906 1723.675781 1830.238281 1698.738281 C 1825.378906 1686.765625 1815.929688 1677.253906 1803.988281 1672.292969 C 1792.039062 1667.335938 1778.578125 1667.335938 1766.550781 1672.300781 "/>
<path fill-rule="nonzero" fill="rgb(100%, 44.309998%, 50.193787%)" fill-opacity="1" d="M 1470.230469 932.289062 C 1458.199219 937.25 1448.609375 946.769531 1443.550781 958.75 C 1438.488281 970.71875 1438.390625 984.179688 1443.25 996.148438 C 1453.390625 1021.089844 1481.910156 1032.929688 1506.941406 1022.589844 C 1531.980469 1012.261719 1544.058594 983.671875 1533.921875 958.730469 C 1529.050781 946.75 1519.601562 937.238281 1507.660156 932.28125 C 1495.710938 927.320312 1482.25 927.328125 1470.230469 932.289062 "/>
<path fill-rule="nonzero" fill="rgb(100%, 44.309998%, 50.193787%)" fill-opacity="1" d="M 2142.210938 1384.070312 C 2130.191406 1389.039062 2120.589844 1398.550781 2115.53125 1410.53125 C 2110.46875 1422.511719 2110.371094 1435.960938 2115.238281 1447.941406 C 2125.378906 1472.871094 2153.890625 1484.710938 2178.929688 1474.371094 C 2203.960938 1464.039062 2216.039062 1435.449219 2205.898438 1410.511719 C 2201.03125 1398.539062 2191.578125 1389.019531 2179.640625 1384.070312 C 2167.699219 1379.109375 2154.230469 1379.109375 2142.210938 1384.070312 "/>
<path fill-rule="nonzero" fill="rgb(100%, 44.309998%, 50.193787%)" fill-opacity="1" d="M 1825.058594 1127.800781 C 1792.351562 1141.300781 1766.25 1167.191406 1752.488281 1199.769531 C 1738.730469 1232.351562 1738.441406 1268.949219 1751.679688 1301.53125 C 1779.269531 1369.371094 1856.839844 1401.570312 1924.941406 1373.449219 C 1993.050781 1345.339844 2025.898438 1267.558594 1998.320312 1199.71875 C 1985.070312 1167.148438 1959.378906 1141.269531 1926.878906 1127.78125 C 1894.390625 1114.289062 1857.761719 1114.300781 1825.058594 1127.800781 "/>
<path fill-rule="nonzero" fill="rgb(94.921875%, 94.921875%, 94.921875%)" fill-opacity="1" d="M 3256.421875 1925.847656 L 2471.160156 1923.621094 C 2454.871094 1923.566406 2441.769531 1935.441406 2441.789062 1950.226562 L 2442.371094 2059.675781 C 2442.378906 2074.460938 2455.519531 2086.402344 2471.808594 2086.449219 L 3257.070312 2088.675781 C 3273.359375 2088.726562 3286.460938 2076.851562 3286.441406 2062.066406 L 3285.859375 1952.621094 C 3285.851562 1937.835938 3272.710938 1925.894531 3256.421875 1925.847656 "/>
<path fill-rule="nonzero" fill="rgb(33.325195%, 59.959412%, 100%)" fill-opacity="1" d="M 2569.078125 2108.792969 L 3293.238281 2108.792969 C 3324.910156 2109.785156 3329.839844 2067.496094 3293.238281 2064.398438 L 2565 2064.398438 C 2544.101562 2064.398438 2512.910156 2062.867188 2498.800781 2059.800781 C 2484.871094 2056.621094 2473.988281 2051.058594 2466.171875 2043.113281 C 2458.53125 2035.164062 2454.699219 2017.863281 2454.699219 2003.558594 C 2454.699219 1983.804688 2462.519531 1963.660156 2478.148438 1955.488281 C 2493.960938 1947.316406 2531.519531 1943.226562 2563.46875 1943.226562 L 3293.238281 1943.226562 C 3331.800781 1938.195312 3321.421875 1898.386719 3293.238281 1898.832031 L 2569.078125 1898.832031 C 2528.429688 1899.277344 2472.128906 1900.175781 2444.421875 1924.15625 C 2432.691406 1934.308594 2422.671875 1945.71875 2416.890625 1957.75 C 2411.109375 1969.785156 2408.230469 1983.859375 2408.230469 1999.980469 C 2408.230469 2019.167969 2411.28125 2035.683594 2417.398438 2049.535156 C 2423.691406 2063.386719 2433.289062 2074.679688 2446.210938 2083.421875 C 2459.289062 2092.164062 2475.949219 2098.578125 2496.171875 2102.664062 C 2516.570312 2106.75 2540.871094 2108.792969 2569.078125 2108.792969 "/>
<path fill-rule="nonzero" fill="rgb(100%, 50.193787%, 50.193787%)" fill-opacity="1" d="M 3350.359375 1720.003906 L 2578.300781 1717.46875 C 2561.210938 1717.410156 2547.46875 1730.929688 2547.488281 1747.769531 L 2548.101562 1872.402344 C 2548.121094 1889.242188 2561.890625 1902.839844 2578.980469 1902.894531 L 3351.039062 1905.429688 C 3368.128906 1905.488281 3381.871094 1891.96875 3381.851562 1875.128906 L 3381.238281 1750.492188 C 3381.230469 1733.652344 3367.449219 1720.054688 3350.359375 1720.003906 "/>
<path fill="none" stroke-width="222.139" stroke-linecap="square" stroke-linejoin="round" stroke="rgb(100%, 100%, 100%)" stroke-opacity="1" stroke-miterlimit="4" d="M 26369.882812 6898.007812 C 26369.882812 6627.34375 26589.296875 6407.96875 26859.882812 6407.96875 C 27130.585938 6407.96875 27350 6627.34375 27350 6898.007812 C 27350 7168.671875 27130.585938 7388.046875 26859.882812 7388.046875 C 26589.296875 7388.046875 26369.882812 7168.671875 26369.882812 6898.007812 Z M 26369.882812 6898.007812 " transform="matrix(0.1, 0, 0, -0.1, 0, 2501.25)"/>
<path fill-rule="nonzero" fill="rgb(100%, 100%, 100%)" fill-opacity="1" d="M 3174.160156 1741.628906 C 3167.46875 1744.605469 3163.210938 1751.292969 3163.339844 1758.617188 C 3163.628906 1845.246094 3162.511719 1777.554688 3162.808594 1864.4375 C 3162.75 1871.007812 3166.230469 1877.105469 3171.910156 1880.394531 C 3177.601562 1883.683594 3184.621094 1883.660156 3190.289062 1880.328125 C 3195.949219 1877 3199.390625 1870.878906 3199.28125 1864.308594 C 3198.980469 1777.675781 3200.109375 1845.371094 3199.808594 1758.488281 C 3199.878906 1752.277344 3196.78125 1746.464844 3191.589844 1743.050781 C 3186.398438 1739.640625 3179.839844 1739.105469 3174.160156 1741.628906 "/>
<path fill-rule="nonzero" fill="rgb(100%, 100%, 100%)" fill-opacity="1" d="M 3235.851562 1741.628906 C 3229.160156 1744.605469 3224.898438 1751.292969 3225.03125 1758.617188 C 3225.328125 1845.246094 3224.199219 1777.554688 3224.5 1864.4375 C 3224.441406 1871.007812 3227.921875 1877.105469 3233.609375 1880.394531 C 3239.289062 1883.683594 3246.308594 1883.660156 3251.980469 1880.328125 C 3257.640625 1877 3261.078125 1870.878906 3260.96875 1864.308594 C 3260.679688 1777.675781 3261.800781 1845.371094 3261.5 1758.488281 C 3261.570312 1752.277344 3258.46875 1746.464844 3253.28125 1743.050781 C 3248.089844 1739.640625 3241.53125 1739.105469 3235.851562 1741.628906 "/>
<path fill-rule="nonzero" fill="rgb(100%, 100%, 100%)" fill-opacity="1" d="M 3112.46875 1741.628906 C 3105.78125 1744.605469 3101.511719 1751.292969 3101.640625 1758.617188 C 3101.941406 1845.246094 3100.808594 1777.554688 3101.109375 1864.4375 C 3101.050781 1871.007812 3104.53125 1877.105469 3110.21875 1880.394531 C 3115.910156 1883.683594 3122.929688 1883.660156 3128.589844 1880.328125 C 3134.261719 1877 3137.699219 1870.878906 3137.589844 1864.308594 C 3137.289062 1777.675781 3138.421875 1845.371094 3138.121094 1758.488281 C 3138.191406 1752.277344 3135.089844 1746.464844 3129.898438 1743.050781 C 3124.710938 1739.640625 3118.140625 1739.105469 3112.46875 1741.628906 "/>
<path fill-rule="nonzero" fill="rgb(96.875%, 77.34375%, 37.646484%)" fill-opacity="1" d="M 2590.878906 2139.8125 L 2590.238281 1953.101562 C 2590.230469 1947.324219 2593.628906 1942.679688 2597.878906 1942.6875 L 2714.539062 1942.890625 C 2718.78125 1942.894531 2722.210938 1947.554688 2722.21875 1953.335938 L 2722.859375 2140.042969 C 2722.878906 2145.820312 2719.46875 2150.46875 2715.230469 2150.460938 L 2655.890625 2091.421875 L 2598.558594 2150.257812 C 2594.320312 2150.253906 2590.890625 2145.589844 2590.878906 2139.8125 "/>
<path fill-rule="nonzero" fill="rgb(96.875%, 77.34375%, 37.646484%)" fill-opacity="1" d="M 3208.808594 1589.953125 L 2477.378906 1587.417969 C 2460.289062 1587.355469 2446.550781 1600.878906 2446.578125 1617.714844 L 2447.179688 1690.640625 C 2447.199219 1707.476562 2460.980469 1721.074219 2478.070312 1721.128906 L 3209.488281 1723.664062 C 3226.578125 1723.722656 3240.320312 1710.203125 3240.300781 1693.363281 L 3239.691406 1620.441406 C 3239.679688 1603.601562 3225.898438 1590.003906 3208.808594 1589.953125 "/>
<path fill-rule="nonzero" fill="rgb(100%, 100%, 100%)" fill-opacity="1" d="M 3121.941406 1615.699219 L 3011.179688 1614.597656 C 3005.550781 1614.570312 3001.019531 1620.460938 3001.03125 1627.796875 L 3001.230469 1682.097656 C 3001.238281 1689.433594 3005.78125 1695.355469 3011.410156 1695.378906 L 3122.171875 1696.484375 C 3127.800781 1696.511719 3132.328125 1690.621094 3132.320312 1683.285156 L 3132.121094 1628.984375 C 3132.121094 1621.648438 3127.578125 1615.722656 3121.941406 1615.699219 "/>
<path fill-rule="nonzero" fill="rgb(94.921875%, 94.921875%, 94.921875%)" fill-opacity="1" d="M 2626.921875 1441.21875 L 3271.699219 1439.390625 C 3285.078125 1439.351562 3295.828125 1449.101562 3295.808594 1461.238281 L 3295.339844 1551.101562 C 3295.328125 1563.246094 3284.539062 1573.050781 3271.171875 1573.085938 L 2626.390625 1574.914062 C 2613.011719 1574.957031 2602.261719 1565.210938 2602.269531 1553.066406 L 2602.75 1463.199219 C 2602.761719 1451.058594 2613.539062 1441.25 2626.921875 1441.21875 "/>
<path fill-rule="nonzero" fill="rgb(100%, 50.193787%, 50.193787%)" fill-opacity="1" d="M 3191.300781 1591.4375 L 2596.691406 1591.4375 C 2570.691406 1592.25 2566.628906 1557.523438 2596.691406 1554.980469 L 3194.648438 1554.980469 C 3211.808594 1554.980469 3237.421875 1553.722656 3249 1551.207031 C 3260.441406 1548.597656 3269.371094 1544.027344 3275.789062 1537.503906 C 3282.070312 1530.980469 3285.210938 1516.769531 3285.210938 1505.027344 C 3285.210938 1488.808594 3278.789062 1472.269531 3265.960938 1465.558594 C 3252.980469 1458.839844 3222.140625 1455.488281 3195.898438 1455.488281 L 2596.691406 1455.488281 C 2565.019531 1451.359375 2573.550781 1418.671875 2596.691406 1419.039062 L 3191.300781 1419.039062 C 3224.671875 1419.398438 3270.898438 1420.140625 3293.648438 1439.828125 C 3303.28125 1448.171875 3311.511719 1457.53125 3316.261719 1467.410156 C 3321 1477.289062 3323.371094 1488.851562 3323.371094 1502.089844 C 3323.371094 1517.84375 3320.859375 1531.40625 3315.839844 1542.777344 C 3310.679688 1554.148438 3302.789062 1563.425781 3292.191406 1570.601562 C 3281.441406 1577.78125 3267.769531 1583.046875 3251.160156 1586.402344 C 3234.421875 1589.757812 3214.460938 1591.4375 3191.300781 1591.4375 "/>
<path fill-rule="nonzero" fill="rgb(33.325195%, 59.959412%, 100%)" fill-opacity="1" d="M 760.84375 2021.78125 C 760.84375 2048.988281 761.910156 2125.371094 761.910156 2125.371094 C 761.910156 2163.425781 906.390625 2161.738281 906.390625 2128.253906 C 906.390625 2128.253906 907.128906 2077.738281 907.128906 2014.253906 C 907.128906 1998.023438 899.652344 1990.183594 890.96875 1990.277344 C 867.945312 1990.527344 800.847656 1989.496094 777.84375 1989.496094 C 769.652344 1989.496094 760.84375 1991.136719 760.84375 2009.410156 L 760.84375 2021.78125 "/>
<path fill-rule="nonzero" fill="rgb(100%, 100%, 100%)" fill-opacity="1" d="M 762.664062 1998.753906 C 762.664062 2030.25 902.351562 2028.851562 902.351562 2001.136719 C 902.351562 2001.136719 902.160156 2052.941406 902.160156 2000.390625 C 902.027344 1972.605469 763.644531 1973.09375 762.675781 1999.3125 C 762.675781 2031.304688 762.671875 1966.757812 762.664062 1998.753906 "/>
<path fill-rule="nonzero" fill="rgb(44.309998%, 76.951599%, 49.414062%)" fill-opacity="1" d="M 770.300781 1964.65625 C 795.132812 1985.582031 846.113281 1988.648438 864.507812 1989.457031 C 889.6875 1990.566406 918.175781 1978.773438 922.851562 1957.019531 C 933.160156 1909.082031 891.015625 1885.582031 835.027344 1839.011719 C 803.402344 1812.703125 784.421875 1799.574219 770.445312 1771.832031 C 750.640625 1732.515625 775.246094 1665.886719 748.40625 1641.617188 C 721.570312 1617.34375 689.574219 1621.882812 666.277344 1636.367188 C 648.574219 1647.371094 640.207031 1670.097656 642.234375 1694.09375 C 644.265625 1718.09375 671.925781 1748.5625 680.421875 1767.515625 C 713.664062 1841.695312 715.074219 1918.121094 770.300781 1964.65625 "/>
<path fill-rule="nonzero" fill="rgb(100%, 100%, 100%)" fill-opacity="1" d="M 711.921875 1670.398438 C 711.871094 1670.605469 711.851562 1670.816406 711.855469 1671.03125 C 712.917969 1726.128906 713.855469 1781.507812 734.707031 1822.382812 C 755.558594 1863.257812 795.742188 1888.648438 814.476562 1914.328125 C 833.210938 1940.007812 831.847656 1966.746094 830.4375 1994.320312 C 830.371094 1995.179688 830.777344 1996.003906 831.496094 1996.476562 C 832.214844 1996.949219 833.132812 1996.996094 833.894531 1996.601562 C 834.660156 1996.203125 835.144531 1995.425781 835.171875 1994.5625 C 836.578125 1966.988281 838.035156 1938.574219 818.304688 1911.535156 C 798.578125 1884.496094 759.011719 1859.597656 738.929688 1820.226562 C 718.84375 1780.855469 717.660156 1726.039062 716.597656 1670.9375 C 716.589844 1669.742188 715.691406 1668.734375 714.5 1668.597656 C 713.308594 1668.460938 712.203125 1669.230469 711.921875 1670.398438 "/>
<path fill-rule="nonzero" fill="rgb(44.309998%, 76.951599%, 49.414062%)" fill-opacity="1" d="M 826.746094 1831.011719 C 832.480469 1870.410156 801.511719 1931.660156 817.359375 1950.046875 C 839.054688 1988.683594 904.601562 2003.59375 932.753906 1949.378906 C 959.617188 1897.65625 966.441406 1869.007812 945.570312 1772.679688 C 934.507812 1721.601562 913.183594 1714.039062 949.003906 1656.828125 C 966.832031 1628.351562 986.246094 1586.976562 986.855469 1564.109375 C 987.46875 1533.089844 962.050781 1497.828125 932.476562 1487.71875 C 904.105469 1478.019531 870.957031 1486.21875 846.363281 1513.71875 C 821.773438 1541.222656 810.996094 1562.398438 802.410156 1603.855469 C 777.152344 1725.78125 820.738281 1789.722656 826.746094 1831.011719 "/>
<path fill-rule="nonzero" fill="rgb(100%, 100%, 100%)" fill-opacity="1" d="M 910.234375 1574.5 C 910.089844 1574.652344 909.964844 1574.828125 909.863281 1575.015625 C 883.230469 1623.265625 856.355469 1671.6875 853.976562 1717.515625 C 851.597656 1763.339844 873.640625 1805.316406 875.304688 1840.414062 C 876.96875 1875.511719 858.773438 1905.292969 847.808594 1930.285156 C 836.839844 1955.277344 833.625 1974.820312 830.464844 1994.058594 C 830.316406 1994.898438 830.632812 1995.753906 831.289062 1996.296875 C 831.945312 1996.839844 832.847656 1996.988281 833.644531 1996.683594 C 834.441406 1996.378906 835.011719 1995.671875 835.140625 1994.828125 C 838.304688 1975.589844 841.410156 1956.664062 852.148438 1932.1875 C 862.890625 1907.714844 881.785156 1877.035156 880.039062 1840.191406 C 878.289062 1803.34375 856.417969 1761.894531 858.710938 1717.757812 C 861 1673.621094 887.382812 1625.554688 914.011719 1577.308594 C 914.605469 1576.265625 914.328125 1574.945312 913.367188 1574.230469 C 912.40625 1573.515625 911.0625 1573.628906 910.234375 1574.5 "/>
<path fill-rule="nonzero" fill="rgb(44.309998%, 76.951599%, 49.414062%)" fill-opacity="1" d="M 1056.390625 1825.695312 C 1065.460938 1810.257812 1073.300781 1789.753906 1069.738281 1773.664062 C 1064.859375 1751.644531 1029.03125 1728.515625 1003.539062 1733.035156 C 960.332031 1740.699219 949.160156 1777.105469 921.871094 1836.28125 C 906.457031 1869.714844 895.269531 1884.316406 890.117188 1889.835938 C 879.136719 1901.59375 851.261719 1921.675781 843.332031 1934.550781 C 835.40625 1947.425781 838.472656 1970.277344 847.441406 1980.363281 C 856.410156 1990.453125 886.621094 1989.828125 900.617188 1983.800781 C 914.613281 1977.769531 957.019531 1918.148438 971.4375 1906.414062 C 1027.859375 1860.496094 1036.609375 1859.378906 1056.390625 1825.695312 "/>
<path fill-rule="nonzero" fill="rgb(100%, 100%, 100%)" fill-opacity="1" d="M 1028.820312 1790.179688 C 1028.28125 1790.15625 1027.761719 1790.3125 1027.320312 1790.625 C 1004.519531 1806.566406 981.421875 1822.703125 961.476562 1849.925781 C 941.527344 1877.148438 924.894531 1915.042969 909.453125 1937.039062 C 894.015625 1959.039062 879.824219 1965.597656 866.804688 1972.402344 C 853.785156 1979.207031 842.664062 1985.820312 831.59375 1992.40625 C 830.84375 1992.828125 830.386719 1993.625 830.390625 1994.480469 C 830.398438 1995.339844 830.867188 1996.128906 831.617188 1996.542969 C 832.367188 1996.957031 833.285156 1996.933594 834.015625 1996.480469 C 845.089844 1989.894531 856.117188 1983.335938 869 1976.605469 C 881.882812 1969.871094 897.355469 1962.53125 913.332031 1939.761719 C 929.3125 1916.996094 945.855469 1879.261719 965.300781 1852.726562 C 984.742188 1826.191406 1007.238281 1810.449219 1030.039062 1794.507812 C 1030.890625 1793.9375 1031.269531 1792.886719 1030.988281 1791.902344 C 1030.710938 1790.921875 1029.839844 1790.226562 1028.820312 1790.179688 "/>
<path fill-rule="nonzero" fill="rgb(33.325195%, 59.959412%, 100%)" fill-opacity="1" d="M 743.453125 1228.839844 L 936.21875 1229 C 981.539062 1229.039062 1018.289062 1268.140625 1017.980469 1316.660156 L 1017.859375 1333.921875 C 1017.550781 1382.441406 981.324219 1421.480469 936 1421.441406 L 922.113281 1463.78125 L 875.390625 1421.390625 L 743.234375 1421.28125 C 697.910156 1421.238281 661.164062 1382.140625 661.476562 1333.621094 L 661.589844 1316.359375 C 661.902344 1267.828125 698.128906 1228.800781 743.453125 1228.839844 "/>
<path fill-rule="nonzero" fill="rgb(100%, 100%, 100%)" fill-opacity="1" d="M 872.4375 1322.730469 C 872.4375 1331.148438 868.988281 1339.21875 862.851562 1345.179688 C 856.714844 1351.128906 848.390625 1354.480469 839.714844 1354.46875 C 821.640625 1354.46875 806.992188 1340.261719 806.992188 1322.730469 C 806.992188 1305.191406 821.640625 1290.980469 839.714844 1290.980469 C 848.390625 1290.980469 856.714844 1294.328125 862.851562 1300.28125 C 868.988281 1306.230469 872.4375 1314.308594 872.4375 1322.730469 "/>
<path fill-rule="nonzero" fill="rgb(100%, 100%, 100%)" fill-opacity="1" d="M 790.113281 1322.730469 C 790.113281 1331.148438 786.664062 1339.21875 780.53125 1345.179688 C 774.394531 1351.128906 766.070312 1354.480469 757.390625 1354.46875 C 739.320312 1354.46875 724.671875 1340.261719 724.671875 1322.730469 C 724.671875 1305.191406 739.320312 1290.980469 757.390625 1290.980469 C 766.070312 1290.980469 774.394531 1294.328125 780.53125 1300.28125 C 786.664062 1306.230469 790.113281 1314.308594 790.113281 1322.730469 "/>
<path fill-rule="nonzero" fill="rgb(100%, 100%, 100%)" fill-opacity="1" d="M 954.757812 1322.730469 C 954.757812 1331.148438 951.308594 1339.21875 945.171875 1345.179688 C 939.035156 1351.128906 930.714844 1354.480469 922.035156 1354.46875 C 903.964844 1354.46875 889.3125 1340.261719 889.3125 1322.730469 C 889.3125 1305.191406 903.964844 1290.980469 922.035156 1290.980469 C 930.714844 1290.980469 939.035156 1294.328125 945.171875 1300.28125 C 951.308594 1306.230469 954.757812 1314.308594 954.757812 1322.730469 "/>
<path fill-rule="nonzero" fill="rgb(100%, 44.309998%, 50.193787%)" fill-opacity="1" d="M 1030.5 1134.21875 L 1202.390625 1992.019531 C 1206.980469 2014.921875 1248.210938 2025.226562 1294.859375 2015.121094 C 1341.5 2005.015625 1375.378906 1978.441406 1370.789062 1955.539062 L 1198.910156 1097.738281 C 1194.320312 1074.839844 1153.089844 1064.53125 1106.441406 1074.628906 C 1059.789062 1084.738281 1025.910156 1111.320312 1030.5 1134.21875 "/>
<path fill-rule="nonzero" fill="rgb(96.875%, 77.34375%, 37.646484%)" fill-opacity="1" d="M 1205.160156 1998.25 L 1376.289062 1964.320312 L 1325.71875 2149.992188 Z M 1205.160156 1998.25 "/>
<path fill-rule="nonzero" fill="rgb(0%, 0%, 0%)" fill-opacity="1" d="M 1325.71875 2149.992188 L 1335.78125 2112.324219 L 1301.390625 2119.144531 Z M 1325.71875 2149.992188 "/>
<path fill-rule="nonzero" fill="rgb(0%, 0%, 0%)" fill-opacity="1" d="M 1325.71875 2149.992188 L 1335.78125 2112.324219 L 1327.191406 2114.503906 L 1325.71875 2149.992188 "/>
<path fill-rule="nonzero" fill="rgb(0%, 0%, 0%)" fill-opacity="1" d="M 1326.058594 2149.925781 L 1327.191406 2114.503906 L 1310.441406 2117.601562 Z M 1326.058594 2149.925781 "/>
<path fill-rule="nonzero" fill="rgb(100%, 44.309998%, 50.193787%)" fill-opacity="1" d="M 1058.011719 593.101562 L 774.804688 592.140625 C 749.820312 592.058594 729.652344 613.25 729.585938 639.570312 L 729.230469 775.570312 C 729.164062 801.890625 749.222656 823.078125 774.203125 823.171875 L 1025.378906 824.058594 L 1053.398438 855.128906 C 1053.398438 855.128906 1051.960938 824.121094 1057.410156 824.128906 C 1082.390625 824.179688 1102.558594 803.019531 1102.628906 776.699219 L 1102.980469 640.699219 C 1103.050781 614.378906 1082.988281 593.179688 1058.011719 593.101562 "/>
<path fill-rule="nonzero" fill="rgb(100%, 100%, 100%)" fill-opacity="1" d="M 1034.359375 655.039062 L 801.324219 655.648438 C 796.914062 655.671875 793.125 660.738281 792.824219 667.039062 C 792.527344 673.351562 795.835938 678.421875 800.246094 678.410156 L 1033.28125 677.800781 C 1037.691406 677.789062 1041.480469 672.710938 1041.78125 666.410156 C 1042.078125 660.101562 1038.769531 655.03125 1034.359375 655.039062 "/>
<path fill-rule="nonzero" fill="rgb(100%, 100%, 100%)" fill-opacity="1" d="M 1034.898438 731.660156 L 888.964844 731.898438 C 884.558594 731.910156 880.769531 736.988281 880.46875 743.289062 C 880.171875 749.601562 883.480469 754.660156 887.886719 754.660156 L 1033.820312 754.410156 C 1038.230469 754.398438 1042.019531 749.320312 1042.320312 743.019531 C 1042.621094 736.71875 1039.308594 731.648438 1034.898438 731.660156 "/>
<path fill-rule="nonzero" fill="rgb(96.875%, 77.34375%, 37.646484%)" fill-opacity="1" d="M 371.144531 910.019531 L 842.105469 909.03125 C 863.792969 908.988281 881.300781 930.789062 881.359375 957.929688 L 881.664062 1098.128906 C 881.726562 1125.269531 864.3125 1147.121094 842.625 1147.210938 L 399.464844 1148.128906 L 375.140625 1180.160156 C 375.140625 1180.160156 376.394531 1148.179688 371.664062 1148.191406 C 349.976562 1148.25 332.46875 1126.441406 332.410156 1099.300781 L 332.101562 959.089844 C 332.042969 931.949219 349.453125 910.058594 371.144531 910.019531 "/>
<path fill-rule="nonzero" fill="rgb(100%, 100%, 100%)" fill-opacity="1" d="M 680.085938 956.648438 L 447.046875 957.261719 C 442.636719 957.269531 438.847656 962.351562 438.550781 968.648438 C 438.25 974.960938 441.558594 980.03125 445.96875 980.019531 L 679.007812 979.410156 C 683.414062 979.390625 687.203125 974.320312 687.503906 968.011719 C 687.804688 961.710938 684.492188 956.640625 680.085938 956.648438 "/>
<path fill-rule="nonzero" fill="rgb(100%, 100%, 100%)" fill-opacity="1" d="M 770.03125 1019.921875 L 624.097656 1020.160156 C 619.6875 1020.171875 615.898438 1025.25 615.601562 1031.550781 C 615.300781 1037.859375 618.609375 1042.929688 623.019531 1042.921875 L 768.953125 1042.671875 C 773.363281 1042.671875 777.152344 1037.578125 777.453125 1031.28125 C 777.75 1024.980469 774.441406 1019.910156 770.03125 1019.921875 "/>
<path fill-rule="nonzero" fill="rgb(100%, 100%, 100%)" fill-opacity="1" d="M 697.277344 1079.558594 L 464.238281 1080.171875 C 459.832031 1080.179688 456.042969 1085.261719 455.742188 1091.558594 C 455.445312 1097.871094 458.753906 1102.941406 463.160156 1102.929688 L 696.199219 1102.320312 C 700.609375 1102.308594 704.398438 1097.230469 704.699219 1090.929688 C 704.996094 1084.621094 701.6875 1079.550781 697.277344 1079.558594 "/>
<path fill-rule="nonzero" fill="rgb(33.325195%, 59.959412%, 100%)" fill-opacity="1" d="M 2726.058594 1045.589844 C 2726.058594 1108.789062 2726.039062 1369.378906 2726.039062 1369.378906 C 2726.039062 1453.230469 3060.449219 1453.238281 3071.449219 1376.070312 C 3071.449219 1376.070312 3070.96875 1175.578125 3070.96875 1028.101562 C 3070.96875 990.398438 3053.351562 972.191406 3032.871094 972.410156 C 2978.589844 972.988281 2821.96875 970.589844 2767.71875 970.589844 C 2748.410156 970.589844 2726.058594 991.5 2726.058594 1016.859375 L 2726.058594 1045.589844 "/>
<path fill-rule="nonzero" fill="rgb(100%, 100%, 100%)" fill-opacity="1" d="M 3028.929688 512.46875 C 3029.691406 512.921875 3005.039062 541.238281 2978.488281 590.710938 C 2966.359375 613.320312 2954.359375 642.648438 2952.820312 674.570312 C 2951.820312 694.730469 2954.441406 715.230469 2959.121094 736.949219 C 2961.410156 747.558594 2964.109375 758.109375 2966.808594 768.269531 C 2975.96875 802.578125 2984.320312 826.160156 2988.628906 856.179688 C 2992.289062 881.71875 2989.820312 904.058594 2984.601562 922.191406 C 2974.890625 955.808594 2960.390625 972.550781 2961.601562 973.03125 C 2960.960938 972.78125 2972.570312 954.398438 2981.03125 921.421875 C 2985.640625 903.539062 2987.578125 881.710938 2983.660156 856.78125 C 2978.988281 826.960938 2970.601562 804.269531 2961.210938 769.46875 C 2958.449219 759.28125 2955.71875 748.671875 2953.410156 737.929688 C 2948.691406 715.96875 2946.101562 695.03125 2947.230469 674.328125 C 2949.078125 641.410156 2961.660156 611.660156 2974.429688 588.929688 C 3002.371094 539.140625 3030.289062 513.28125 3028.929688 512.46875 "/>
<path fill-rule="nonzero" fill="rgb(100%, 100%, 100%)" fill-opacity="1" d="M 2888.441406 660.390625 C 2889.261719 660.578125 2884.019531 676.398438 2880.679688 701.859375 C 2878.980469 714.769531 2878.429688 730.441406 2881.441406 747.210938 C 2883.621094 759.429688 2887.261719 771.550781 2891.808594 784.769531 C 2893.601562 789.988281 2895.5 795.28125 2897.308594 800.320312 C 2904.179688 819.46875 2909.761719 833.519531 2913.289062 850.128906 C 2916.160156 863.609375 2915.949219 875.03125 2913.730469 884.640625 C 2909.960938 900.78125 2902.75 908.371094 2903.171875 908.53125 C 2902.558594 908.300781 2907.710938 899.53125 2910.308594 884.089844 C 2911.898438 874.789062 2911.601562 864 2908.480469 851 C 2904.519531 834.589844 2898.941406 821.410156 2891.828125 801.898438 C 2889.988281 796.851562 2888.070312 791.578125 2886.25 786.289062 C 2881.679688 772.980469 2878.050781 760.53125 2875.980469 747.960938 C 2873.128906 730.558594 2874.121094 714.46875 2876.398438 701.339844 C 2880.910156 675.460938 2888.558594 660.421875 2888.441406 660.390625 "/>
</svg>
