<?xml version="1.0" encoding="UTF-8"?>
<svg xmlns="http://www.w3.org/2000/svg" xmlns:xlink="http://www.w3.org/1999/xlink" width="3750" height="2501.25" viewBox="0 0 3750 2501.25">
<defs>
<linearGradient id="linear-pattern-0" gradientUnits="userSpaceOnUse" x1="0.34715" y1="0" x2="0.870926" y2="0" gradientTransform="matrix(-7357.64, -327.683, -327.683, 7357.64, 6358.07, 1405.52)">
<stop offset="0" stop-color="rgb(98.893738%, 93.260193%, 85.916138%)" stop-opacity="1"/>
<stop offset="0.03125" stop-color="rgb(98.867798%, 93.286133%, 86.045837%)" stop-opacity="1"/>
<stop offset="0.0625" stop-color="rgb(98.815918%, 93.339539%, 86.305237%)" stop-opacity="1"/>
<stop offset="0.09375" stop-color="rgb(98.764038%, 93.391418%, 86.566162%)" stop-opacity="1"/>
<stop offset="0.125" stop-color="rgb(98.712158%, 93.443298%, 86.827087%)" stop-opacity="1"/>
<stop offset="0.15625" stop-color="rgb(98.660278%, 93.495178%, 87.086487%)" stop-opacity="1"/>
<stop offset="0.1875" stop-color="rgb(98.608398%, 93.547058%, 87.347412%)" stop-opacity="1"/>
<stop offset="0.21875" stop-color="rgb(98.554993%, 93.598938%, 87.608337%)" stop-opacity="1"/>
<stop offset="0.25" stop-color="rgb(98.503113%, 93.650818%, 87.869263%)" stop-opacity="1"/>
<stop offset="0.28125" stop-color="rgb(98.451233%, 93.704224%, 88.128662%)" stop-opacity="1"/>
<stop offset="0.3125" stop-color="rgb(98.399353%, 93.756104%, 88.389587%)" stop-opacity="1"/>
<stop offset="0.34375" stop-color="rgb(98.347473%, 93.807983%, 88.650513%)" stop-opacity="1"/>
<stop offset="0.375" stop-color="rgb(98.295593%, 93.859863%, 88.909912%)" stop-opacity="1"/>
<stop offset="0.40625" stop-color="rgb(98.243713%, 93.911743%, 89.170837%)" stop-opacity="1"/>
<stop offset="0.4375" stop-color="rgb(98.190308%, 93.963623%, 89.431763%)" stop-opacity="1"/>
<stop offset="0.46875" stop-color="rgb(98.138428%, 94.015503%, 89.691162%)" stop-opacity="1"/>
<stop offset="0.5" stop-color="rgb(98.086548%, 94.068909%, 89.952087%)" stop-opacity="1"/>
<stop offset="0.53125" stop-color="rgb(98.072815%, 94.081116%, 90.019226%)" stop-opacity="1"/>
<stop offset="0.546875" stop-color="rgb(98.106384%, 94.047546%, 89.852905%)" stop-opacity="1"/>
<stop offset="0.5625" stop-color="rgb(98.147583%, 94.006348%, 89.64386%)" stop-opacity="1"/>
<stop offset="0.578125" stop-color="rgb(98.190308%, 93.963623%, 89.434814%)" stop-opacity="1"/>
<stop offset="0.59375" stop-color="rgb(98.231506%, 93.922424%, 89.225769%)" stop-opacity="1"/>
<stop offset="0.609375" stop-color="rgb(98.274231%, 93.881226%, 89.016724%)" stop-opacity="1"/>
<stop offset="0.625" stop-color="rgb(98.31543%, 93.838501%, 88.807678%)" stop-opacity="1"/>
<stop offset="0.640625" stop-color="rgb(98.356628%, 93.797302%, 88.598633%)" stop-opacity="1"/>
<stop offset="0.65625" stop-color="rgb(98.399353%, 93.754578%, 88.389587%)" stop-opacity="1"/>
<stop offset="0.671875" stop-color="rgb(98.440552%, 93.713379%, 88.180542%)" stop-opacity="1"/>
<stop offset="0.6875" stop-color="rgb(98.483276%, 93.67218%, 87.971497%)" stop-opacity="1"/>
<stop offset="0.703125" stop-color="rgb(98.524475%, 93.629456%, 87.762451%)" stop-opacity="1"/>
<stop offset="0.71875" stop-color="rgb(98.565674%, 93.588257%, 87.553406%)" stop-opacity="1"/>
<stop offset="0.734375" stop-color="rgb(98.608398%, 93.547058%, 87.34436%)" stop-opacity="1"/>
<stop offset="0.75" stop-color="rgb(98.649597%, 93.504333%, 87.135315%)" stop-opacity="1"/>
<stop offset="0.765625" stop-color="rgb(98.692322%, 93.463135%, 86.92627%)" stop-opacity="1"/>
<stop offset="0.78125" stop-color="rgb(98.733521%, 93.42041%, 86.717224%)" stop-opacity="1"/>
<stop offset="0.796875" stop-color="rgb(98.774719%, 93.379211%, 86.508179%)" stop-opacity="1"/>
<stop offset="0.8125" stop-color="rgb(98.817444%, 93.338013%, 86.299133%)" stop-opacity="1"/>
<stop offset="0.828125" stop-color="rgb(98.858643%, 93.295288%, 86.090088%)" stop-opacity="1"/>
<stop offset="0.84375" stop-color="rgb(98.901367%, 93.254089%, 85.881042%)" stop-opacity="1"/>
<stop offset="0.859375" stop-color="rgb(98.942566%, 93.211365%, 85.671997%)" stop-opacity="1"/>
<stop offset="0.875" stop-color="rgb(98.983765%, 93.170166%, 85.462952%)" stop-opacity="1"/>
<stop offset="0.890625" stop-color="rgb(99.026489%, 93.128967%, 85.253906%)" stop-opacity="1"/>
<stop offset="0.90625" stop-color="rgb(99.067688%, 93.086243%, 85.044861%)" stop-opacity="1"/>
<stop offset="0.921875" stop-color="rgb(99.108887%, 93.045044%, 84.835815%)" stop-opacity="1"/>
<stop offset="0.9375" stop-color="rgb(99.151611%, 93.002319%, 84.62677%)" stop-opacity="1"/>
<stop offset="0.953125" stop-color="rgb(99.19281%, 92.961121%, 84.417725%)" stop-opacity="1"/>
<stop offset="0.96875" stop-color="rgb(99.235535%, 92.919922%, 84.208679%)" stop-opacity="1"/>
<stop offset="0.984375" stop-color="rgb(99.276733%, 92.877197%, 83.999634%)" stop-opacity="1"/>
<stop offset="1" stop-color="rgb(99.317932%, 92.835999%, 83.790588%)" stop-opacity="1"/>
</linearGradient>
</defs>
<path fill-rule="nonzero" fill="url(#linear-pattern-0)" d="M 3861.175781 4.953125 L 3742.578125 2667.929688 L -111.175781 2496.296875 L 7.421875 -166.679688 Z M 3861.175781 4.953125 "/>
<path fill-rule="nonzero" fill="rgb(30.200195%, 30.200195%, 30.200195%)" fill-opacity="1" d="M 1931.648438 1835.613281 C 1941 1893.980469 1964.109375 1956.691406 1997.851562 2015.1875 C 2014.421875 2043.757812 2033.230469 2070.800781 2053.640625 2095.394531 L 2053.640625 2096.257812 L 1696.359375 2096.257812 L 1696.359375 2095.675781 C 1716.789062 2070.984375 1735.601562 2043.847656 1752.148438 2015.1875 C 1785.851562 1956.671875 1808.921875 1893.960938 1818.210938 1835.613281 L 1931.648438 1835.613281 "/>
<path fill-rule="nonzero" fill="rgb(30.200195%, 30.200195%, 30.200195%)" fill-opacity="1" d="M 2068.671875 2085.070312 L 1681.328125 2085.070312 C 1668.730469 2085.070312 1658.578125 2095.21875 1658.578125 2107.816406 C 1658.578125 2120.421875 1668.730469 2130.566406 1681.328125 2130.566406 L 2068.671875 2130.566406 C 2081.269531 2130.566406 2091.421875 2120.421875 2091.421875 2107.816406 C 2091.421875 2095.21875 2081.269531 2085.070312 2068.671875 2085.070312 "/>
<path fill-rule="nonzero" fill="rgb(30.200195%, 30.200195%, 30.200195%)" fill-opacity="1" d="M 1177.480469 779.640625 L 2572.519531 779.640625 C 2639.25 779.640625 2692.960938 828.269531 2692.960938 888.691406 L 2692.960938 1806.492188 C 2692.960938 1866.90625 2639.25 1915.539062 2572.519531 1915.539062 L 1177.480469 1915.539062 C 1110.761719 1915.539062 1057.039062 1866.90625 1057.039062 1806.492188 L 1057.039062 888.691406 C 1057.039062 828.269531 1110.761719 779.640625 1177.480469 779.640625 "/>
<path fill-rule="nonzero" fill="rgb(100%, 100%, 100%)" fill-opacity="1" d="M 1227.261719 839.289062 L 2522.738281 839.289062 C 2584.699219 839.289062 2634.578125 856.671875 2634.578125 921.359375 L 2634.578125 1739.113281 C 2634.578125 1803.804688 2584.699219 1855.886719 2522.738281 1855.886719 L 1227.261719 1855.886719 C 1165.300781 1855.886719 1115.421875 1803.804688 1115.421875 1739.113281 L 1115.421875 921.359375 C 1115.421875 856.671875 1165.300781 839.289062 1227.261719 839.289062 "/>
<path fill-rule="nonzero" fill="rgb(94.921875%, 94.921875%, 94.921875%)" fill-opacity="1" d="M 2265.058594 1510.382812 L 1413.210938 1507.964844 C 1395.539062 1507.910156 1381.328125 1520.789062 1381.351562 1536.828125 L 1381.980469 1655.558594 C 1382 1671.597656 1396.238281 1684.550781 1413.921875 1684.601562 L 2265.769531 1687.015625 C 2283.441406 1687.074219 2297.648438 1674.191406 2297.621094 1658.152344 L 2297 1539.425781 C 2296.980469 1523.382812 2282.730469 1510.429688 2265.058594 1510.382812 "/>
<path fill-rule="nonzero" fill="rgb(33.325195%, 59.959412%, 100%)" fill-opacity="1" d="M 1519.429688 1708.84375 L 2305 1708.84375 C 2339.359375 1709.914062 2344.710938 1664.039062 2305 1660.679688 L 1515.011719 1660.679688 C 1492.328125 1660.679688 1458.5 1659.019531 1443.199219 1655.695312 C 1428.078125 1652.246094 1416.28125 1646.210938 1407.800781 1637.589844 C 1399.511719 1628.96875 1395.359375 1610.199219 1395.359375 1594.683594 C 1395.359375 1573.253906 1403.839844 1551.402344 1420.800781 1542.535156 C 1437.941406 1533.671875 1478.691406 1529.234375 1513.351562 1529.234375 L 2305 1529.234375 C 2346.839844 1523.777344 2335.570312 1480.589844 2305 1481.078125 L 1519.429688 1481.078125 C 1475.339844 1481.558594 1414.269531 1482.53125 1384.210938 1508.550781 C 1371.480469 1519.5625 1360.609375 1531.9375 1354.339844 1544.992188 C 1348.078125 1558.042969 1344.941406 1573.316406 1344.941406 1590.800781 C 1344.941406 1611.613281 1348.261719 1629.53125 1354.898438 1644.558594 C 1361.71875 1659.582031 1372.128906 1671.835938 1386.140625 1681.316406 C 1400.339844 1690.800781 1418.410156 1697.757812 1440.351562 1702.191406 C 1462.46875 1706.625 1488.828125 1708.84375 1519.429688 1708.84375 "/>
<path fill-rule="nonzero" fill="rgb(100%, 50.193787%, 50.193787%)" fill-opacity="1" d="M 2366.96875 1287.078125 L 1529.441406 1284.328125 C 1510.898438 1284.269531 1496 1298.929688 1496.019531 1317.199219 L 1496.679688 1452.410156 C 1496.691406 1470.671875 1511.640625 1485.421875 1530.179688 1485.480469 L 2367.710938 1488.230469 C 2386.25 1488.300781 2401.148438 1473.628906 2401.128906 1455.359375 L 2400.46875 1320.160156 C 2400.460938 1301.890625 2385.511719 1287.140625 2366.96875 1287.078125 "/>
<path fill="none" stroke-width="240.976" stroke-linecap="square" stroke-linejoin="round" stroke="rgb(100%, 100%, 100%)" stroke-opacity="1" stroke-miterlimit="4" d="M 15931.015625 11149.6875 C 15931.015625 10856.09375 16168.984375 10618.085938 16462.617188 10618.085938 C 16756.210938 10618.085938 16994.21875 10856.09375 16994.21875 11149.6875 C 16994.21875 11443.28125 16756.210938 11681.289062 16462.617188 11681.289062 C 16168.984375 11681.289062 15931.015625 11443.28125 15931.015625 11149.6875 Z M 15931.015625 11149.6875 " transform="matrix(0.1, 0, 0, -0.1, 0, 2501.25)"/>
<path fill-rule="nonzero" fill="rgb(100%, 100%, 100%)" fill-opacity="1" d="M 2175.828125 1310.539062 C 2168.570312 1313.769531 2163.949219 1321.03125 2164.089844 1328.96875 C 2164.410156 1422.949219 2163.191406 1349.511719 2163.511719 1443.761719 C 2163.449219 1450.890625 2167.21875 1457.5 2173.390625 1461.070312 C 2179.558594 1464.640625 2187.179688 1464.621094 2193.320312 1461 C 2199.46875 1457.390625 2203.191406 1450.75 2203.078125 1443.628906 C 2202.761719 1349.648438 2203.980469 1423.078125 2203.648438 1328.828125 C 2203.730469 1322.089844 2200.371094 1315.789062 2194.738281 1312.089844 C 2189.109375 1308.390625 2181.980469 1307.800781 2175.828125 1310.539062 "/>
<path fill-rule="nonzero" fill="rgb(100%, 100%, 100%)" fill-opacity="1" d="M 2242.75 1310.539062 C 2235.488281 1313.769531 2230.871094 1321.03125 2231.011719 1328.96875 C 2231.328125 1422.949219 2230.109375 1349.511719 2230.429688 1443.761719 C 2230.371094 1450.890625 2234.140625 1457.5 2240.308594 1461.070312 C 2246.480469 1464.640625 2254.101562 1464.621094 2260.238281 1461 C 2266.390625 1457.390625 2270.121094 1450.75 2270 1443.628906 C 2269.679688 1349.648438 2270.898438 1423.078125 2270.578125 1328.828125 C 2270.648438 1322.089844 2267.289062 1315.789062 2261.660156 1312.089844 C 2256.03125 1308.390625 2248.910156 1307.800781 2242.75 1310.539062 "/>
<path fill-rule="nonzero" fill="rgb(100%, 100%, 100%)" fill-opacity="1" d="M 2108.898438 1310.539062 C 2101.640625 1313.769531 2097.019531 1321.03125 2097.160156 1328.96875 C 2097.480469 1422.949219 2096.261719 1349.511719 2096.589844 1443.761719 C 2096.519531 1450.890625 2100.289062 1457.5 2106.46875 1461.070312 C 2112.640625 1464.640625 2120.25 1464.621094 2126.398438 1461 C 2132.539062 1457.390625 2136.269531 1450.75 2136.148438 1443.628906 C 2135.828125 1349.648438 2137.050781 1423.078125 2136.730469 1328.828125 C 2136.800781 1322.089844 2133.441406 1315.789062 2127.808594 1312.089844 C 2122.179688 1308.390625 2115.058594 1307.800781 2108.898438 1310.539062 "/>
<path fill-rule="nonzero" fill="rgb(96.875%, 77.34375%, 37.646484%)" fill-opacity="1" d="M 1543.078125 1742.488281 L 1542.390625 1539.949219 C 1542.378906 1533.679688 1546.070312 1528.640625 1550.671875 1528.648438 L 1677.230469 1528.867188 C 1681.828125 1528.875 1685.550781 1533.929688 1685.570312 1540.199219 L 1686.261719 1742.742188 C 1686.269531 1749.011719 1682.578125 1754.050781 1677.980469 1754.042969 L 1613.609375 1689.996094 L 1551.421875 1753.820312 C 1546.820312 1753.816406 1543.101562 1748.757812 1543.078125 1742.488281 "/>
<path fill-rule="nonzero" fill="rgb(96.875%, 77.34375%, 37.646484%)" fill-opacity="1" d="M 2213.410156 1146 L 1419.960938 1143.25 C 1401.429688 1143.191406 1386.519531 1157.851562 1386.539062 1176.121094 L 1387.199219 1255.230469 C 1387.21875 1273.488281 1402.171875 1288.25 1420.699219 1288.300781 L 2214.160156 1291.050781 C 2232.691406 1291.121094 2247.601562 1276.449219 2247.570312 1258.179688 L 2246.921875 1179.078125 C 2246.898438 1160.808594 2231.949219 1146.058594 2213.410156 1146 "/>
<path fill-rule="nonzero" fill="rgb(100%, 100%, 100%)" fill-opacity="1" d="M 2119.179688 1173.929688 L 1999.03125 1172.738281 C 1992.921875 1172.710938 1988.011719 1179.101562 1988.019531 1187.058594 L 1988.230469 1245.960938 C 1988.238281 1253.921875 1993.160156 1260.351562 1999.269531 1260.371094 L 2119.429688 1261.570312 C 2125.539062 1261.601562 2130.449219 1255.210938 2130.441406 1247.25 L 2130.230469 1188.339844 C 2130.21875 1180.390625 2125.289062 1173.960938 2119.179688 1173.929688 "/>
<path fill-rule="nonzero" fill="rgb(94.921875%, 94.921875%, 94.921875%)" fill-opacity="1" d="M 1582.179688 984.648438 L 2281.640625 982.671875 C 2296.148438 982.621094 2307.808594 993.199219 2307.800781 1006.371094 L 2307.28125 1103.859375 C 2307.269531 1117.03125 2295.570312 1127.671875 2281.058594 1127.710938 L 1581.601562 1129.691406 C 1567.089844 1129.738281 1555.421875 1119.160156 1555.441406 1105.988281 L 1555.960938 1008.5 C 1555.96875 995.328125 1567.671875 984.699219 1582.179688 984.648438 "/>
<path fill-rule="nonzero" fill="rgb(100%, 50.193787%, 50.193787%)" fill-opacity="1" d="M 2194.421875 1147.609375 L 1549.390625 1147.609375 C 1521.179688 1148.488281 1516.78125 1110.828125 1549.390625 1108.070312 L 2198.050781 1108.070312 C 2216.671875 1108.070312 2244.449219 1106.699219 2257.011719 1103.96875 C 2269.429688 1101.140625 2279.109375 1096.191406 2286.078125 1089.109375 C 2292.890625 1082.03125 2296.300781 1066.621094 2296.300781 1053.871094 C 2296.300781 1036.28125 2289.328125 1018.339844 2275.410156 1011.058594 C 2261.328125 1003.78125 2227.871094 1000.140625 2199.410156 1000.140625 L 1549.390625 1000.140625 C 1515.03125 995.648438 1524.28125 960.191406 1549.390625 960.589844 L 2194.421875 960.589844 C 2230.621094 960.988281 2280.769531 961.789062 2305.449219 983.148438 C 2315.898438 992.191406 2324.828125 1002.351562 2329.96875 1013.070312 C 2335.121094 1023.789062 2337.691406 1036.328125 2337.691406 1050.691406 C 2337.691406 1067.78125 2334.96875 1082.488281 2329.519531 1094.828125 C 2323.921875 1107.160156 2315.371094 1117.230469 2303.859375 1125.011719 C 2292.210938 1132.800781 2277.371094 1138.511719 2259.359375 1142.148438 C 2241.191406 1145.789062 2219.550781 1147.609375 2194.421875 1147.609375 "/>
<path fill-rule="nonzero" fill="rgb(33.325195%, 59.959412%, 100%)" fill-opacity="1" d="M 859.566406 843.519531 C 894.816406 904.578125 963.144531 1023.011719 963.144531 1023.011719 C 1087.808594 1236.710938 1655.949219 909.191406 1535.070312 701.429688 C 1535.070312 701.429688 1499.441406 641.519531 1417.191406 499.058594 C 1396.171875 462.640625 1357.019531 461.789062 1323.449219 481.449219 C 1234.480469 533.558594 975.503906 679.988281 886.273438 731.511719 C 854.503906 749.851562 829.398438 791.269531 843.542969 815.769531 L 859.566406 843.519531 "/>
<path fill-rule="nonzero" fill="rgb(96.875%, 77.34375%, 37.646484%)" fill-opacity="1" d="M 889.578125 1064.011719 C 914.070312 1081.648438 952.316406 1118.148438 963.777344 1146.050781 C 975.238281 1173.960938 959.921875 1193.261719 943.089844 1202.820312 C 926.257812 1212.378906 907.921875 1212.191406 892.078125 1195.601562 C 876.234375 1179.019531 862.894531 1146.03125 855.226562 1118.839844 C 847.5625 1091.640625 845.574219 1070.230469 849.953125 1058.921875 C 854.335938 1047.601562 865.082031 1046.378906 889.578125 1064.011719 "/>
<path fill-rule="nonzero" fill="rgb(33.325195%, 59.959412%, 100%)" fill-opacity="1" d="M 611.289062 901.320312 L 956.1875 421.96875 C 968.761719 404.5 996.449219 388.671875 1018.269531 386.480469 L 1604.398438 327.601562 C 1626.21875 325.410156 1633.660156 337.710938 1621.089844 355.191406 L 1276.191406 834.53125 C 1263.621094 852 1235.929688 867.828125 1214.109375 870.03125 L 627.980469 928.898438 C 606.160156 931.089844 598.71875 918.789062 611.289062 901.320312 "/>
<path fill-rule="nonzero" fill="rgb(96.875%, 77.34375%, 37.646484%)" fill-opacity="1" d="M 769.640625 880.199219 L 1081.648438 622.488281 C 1087.410156 617.730469 1096.339844 617.011719 1101.300781 624.550781 C 1106.25 632.089844 1104.339844 640.160156 1098.550781 644.890625 L 785.597656 905.21875 L 837.371094 993.761719 C 837.371094 993.761719 834.824219 1024.941406 812.160156 1001.609375 C 800.601562 989.710938 770.386719 921.820312 753.972656 906.199219 C 747.433594 899.980469 763.878906 884.960938 769.640625 880.199219 "/>
<path fill-rule="nonzero" fill="rgb(96.875%, 77.34375%, 37.646484%)" fill-opacity="1" d="M 1071.589844 600.921875 C 1064.128906 609.808594 1060.390625 620.738281 1061.199219 631.320312 C 1062.011719 641.898438 1067.300781 651.25 1075.910156 657.328125 C 1093.828125 669.96875 1120.960938 665.230469 1136.5 646.71875 C 1152.039062 628.21875 1150.109375 602.96875 1132.191406 590.320312 C 1123.578125 584.25 1112.359375 581.949219 1101 583.941406 C 1089.640625 585.929688 1079.058594 592.039062 1071.589844 600.921875 "/>
<path fill-rule="nonzero" fill="rgb(96.875%, 77.34375%, 37.646484%)" fill-opacity="1" d="M 809.214844 1000.511719 C 803.179688 1008.308594 800.457031 1018.160156 801.644531 1027.890625 C 802.828125 1037.621094 807.828125 1046.429688 815.535156 1052.398438 C 831.589844 1064.808594 854.785156 1061.71875 867.347656 1045.480469 C 879.910156 1029.238281 877.078125 1006.011719 861.023438 993.589844 C 853.316406 987.628906 843.523438 985.011719 833.808594 986.300781 C 824.09375 987.601562 815.246094 992.710938 809.214844 1000.511719 "/>
<path fill-rule="nonzero" fill="rgb(100%, 44.309998%, 50.193787%)" fill-opacity="1" d="M 2582.050781 1162.179688 L 2682.78125 1976.867188 C 2685.46875 1998.617188 2723.328125 2011.148438 2767.691406 2004.964844 C 2812.039062 1998.777344 2845.601562 1976.28125 2842.910156 1954.53125 L 2742.179688 1139.839844 C 2739.488281 1118.089844 2701.628906 1105.558594 2657.28125 1111.75 C 2612.921875 1117.929688 2579.359375 1140.429688 2582.050781 1162.179688 "/>
<path fill-rule="nonzero" fill="rgb(96.875%, 77.34375%, 37.646484%)" fill-opacity="1" d="M 2684.941406 1982.890625 L 2847.449219 1963.132812 L 2787.109375 2133.320312 Z M 2684.941406 1982.890625 "/>
<path fill-rule="nonzero" fill="rgb(0%, 0%, 0%)" fill-opacity="1" d="M 2787.109375 2133.320312 L 2799.171875 2098.78125 L 2766.511719 2102.753906 Z M 2787.109375 2133.320312 "/>
<path fill-rule="nonzero" fill="rgb(0%, 0%, 0%)" fill-opacity="1" d="M 2787.109375 2133.320312 L 2799.171875 2098.78125 L 2790.980469 2100.214844 L 2787.109375 2133.320312 "/>
<path fill-rule="nonzero" fill="rgb(0%, 0%, 0%)" fill-opacity="1" d="M 2787.441406 2133.28125 L 2790.980469 2100.214844 L 2775.089844 2101.945312 Z M 2787.441406 2133.28125 "/>
<path fill-rule="nonzero" fill="rgb(100%, 44.309998%, 50.193787%)" fill-opacity="1" d="M 916.710938 1938.335938 C 942.144531 1959.769531 994.355469 1962.90625 1013.199219 1963.738281 C 1038.988281 1964.871094 1068.171875 1952.796875 1072.960938 1930.515625 C 1083.519531 1881.414062 1040.351562 1857.34375 983.003906 1809.644531 C 950.613281 1782.699219 931.171875 1769.25 916.855469 1740.835938 C 896.570312 1700.566406 921.773438 1632.320312 894.285156 1607.464844 C 866.796875 1582.605469 834.027344 1587.253906 810.164062 1602.085938 C 792.03125 1613.355469 783.460938 1636.632812 785.539062 1661.214844 C 787.617188 1685.796875 815.949219 1717 824.648438 1736.414062 C 858.699219 1812.394531 860.144531 1890.671875 916.710938 1938.335938 "/>
<path fill-rule="nonzero" fill="rgb(96.875%, 77.34375%, 37.646484%)" fill-opacity="1" d="M 926.4375 1996.84375 C 926.4375 2024.710938 927.527344 2102.949219 927.527344 2102.949219 C 927.527344 2141.921875 1075.511719 2140.195312 1075.511719 2105.898438 C 1075.511719 2105.898438 1076.269531 2054.160156 1076.269531 1989.136719 C 1076.269531 1972.511719 1068.609375 1964.484375 1059.710938 1964.578125 C 1036.128906 1964.835938 967.410156 1963.777344 943.847656 1963.777344 C 935.457031 1963.777344 926.4375 1965.457031 926.4375 1984.175781 L 926.4375 1996.84375 "/>
<path fill-rule="nonzero" fill="rgb(0%, 0%, 0%)" fill-opacity="1" d="M 928.300781 1973.257812 C 928.300781 2005.519531 1071.378906 2004.089844 1071.378906 1975.699219 C 1071.378906 1975.699219 1071.179688 2028.761719 1071.179688 1974.9375 C 1071.039062 1946.476562 929.304688 1946.976562 928.3125 1973.828125 C 928.3125 2006.597656 928.304688 1940.488281 928.300781 1973.257812 "/>
<path fill-rule="nonzero" fill="rgb(100%, 100%, 100%)" fill-opacity="1" d="M 876.328125 1636.941406 C 876.277344 1637.152344 876.253906 1637.371094 876.261719 1637.589844 C 877.347656 1694.027344 878.308594 1750.746094 899.664062 1792.609375 C 921.023438 1834.476562 962.179688 1860.484375 981.367188 1886.789062 C 1000.558594 1913.089844 999.160156 1940.476562 997.714844 1968.71875 C 997.648438 1969.597656 998.066406 1970.441406 998.800781 1970.929688 C 999.535156 1971.414062 1000.480469 1971.460938 1001.261719 1971.054688 C 1002.039062 1970.648438 1002.539062 1969.847656 1002.558594 1968.96875 C 1004.011719 1940.722656 1005.5 1911.621094 985.289062 1883.925781 C 965.085938 1856.230469 924.558594 1830.726562 903.988281 1790.402344 C 883.417969 1750.078125 882.203125 1693.933594 881.117188 1637.496094 C 881.109375 1636.269531 880.1875 1635.238281 878.96875 1635.097656 C 877.746094 1634.957031 876.613281 1635.746094 876.328125 1636.941406 "/>
<path fill-rule="nonzero" fill="rgb(100%, 44.309998%, 50.193787%)" fill-opacity="1" d="M 993.933594 1801.449219 C 999.808594 1841.804688 968.089844 1904.539062 984.324219 1923.371094 C 1006.539062 1962.945312 1073.679688 1978.214844 1102.511719 1922.6875 C 1130.03125 1869.710938 1137.019531 1840.367188 1115.640625 1741.703125 C 1104.308594 1689.386719 1082.46875 1681.644531 1119.160156 1623.042969 C 1137.421875 1593.878906 1157.300781 1551.5 1157.929688 1528.078125 C 1158.550781 1496.300781 1132.519531 1460.191406 1102.230469 1449.839844 C 1073.171875 1439.898438 1039.21875 1448.300781 1014.03125 1476.46875 C 988.84375 1504.632812 977.804688 1526.324219 969.007812 1568.785156 C 943.140625 1693.667969 987.78125 1759.160156 993.933594 1801.449219 "/>
<path fill-rule="nonzero" fill="rgb(100%, 100%, 100%)" fill-opacity="1" d="M 1079.449219 1538.71875 C 1079.300781 1538.878906 1079.171875 1539.054688 1079.070312 1539.246094 C 1051.789062 1588.664062 1024.261719 1638.265625 1021.828125 1685.199219 C 1019.390625 1732.136719 1041.96875 1775.132812 1043.671875 1811.082031 C 1045.378906 1847.03125 1026.738281 1877.53125 1015.511719 1903.128906 C 1004.28125 1928.730469 1000.980469 1948.746094 997.742188 1968.449219 C 997.59375 1969.308594 997.914062 1970.1875 998.589844 1970.742188 C 999.261719 1971.300781 1000.179688 1971.449219 1001 1971.140625 C 1001.820312 1970.828125 1002.398438 1970.101562 1002.539062 1969.238281 C 1005.769531 1949.535156 1008.949219 1930.148438 1019.949219 1905.082031 C 1030.949219 1880.015625 1050.308594 1848.589844 1048.519531 1810.851562 C 1046.730469 1773.113281 1024.328125 1730.660156 1026.671875 1685.453125 C 1029.019531 1640.246094 1056.039062 1591.011719 1083.320312 1541.59375 C 1083.929688 1540.527344 1083.640625 1539.175781 1082.660156 1538.441406 C 1081.671875 1537.710938 1080.289062 1537.828125 1079.449219 1538.71875 "/>
<path fill-rule="nonzero" fill="rgb(100%, 44.309998%, 50.193787%)" fill-opacity="1" d="M 1229.148438 1796.007812 C 1238.441406 1780.191406 1246.46875 1759.191406 1242.820312 1742.714844 C 1237.828125 1720.160156 1201.121094 1696.46875 1175.011719 1701.101562 C 1130.761719 1708.949219 1119.320312 1746.234375 1091.371094 1806.851562 C 1075.578125 1841.089844 1064.121094 1856.046875 1058.839844 1861.699219 C 1047.601562 1873.742188 1019.039062 1894.3125 1010.921875 1907.5 C 1002.800781 1920.6875 1005.949219 1944.09375 1015.128906 1954.425781 C 1024.320312 1964.757812 1055.261719 1964.117188 1069.601562 1957.941406 C 1083.929688 1951.765625 1127.371094 1890.699219 1142.128906 1878.679688 C 1199.921875 1831.652344 1208.890625 1830.503906 1229.148438 1796.007812 "/>
<path fill-rule="nonzero" fill="rgb(100%, 100%, 100%)" fill-opacity="1" d="M 1200.910156 1759.628906 C 1200.359375 1759.605469 1199.820312 1759.765625 1199.378906 1760.085938 C 1176.019531 1776.410156 1152.359375 1792.941406 1131.929688 1820.824219 C 1111.5 1848.703125 1094.460938 1887.519531 1078.648438 1910.050781 C 1062.828125 1932.578125 1048.300781 1939.300781 1034.96875 1946.269531 C 1021.628906 1953.238281 1010.238281 1960.011719 998.898438 1966.757812 C 998.132812 1967.191406 997.664062 1968.003906 997.671875 1968.882812 C 997.675781 1969.761719 998.15625 1970.570312 998.925781 1970.996094 C 999.695312 1971.417969 1000.628906 1971.394531 1001.378906 1970.929688 C 1012.71875 1964.183594 1024.019531 1957.46875 1037.210938 1950.574219 C 1050.410156 1943.675781 1066.25 1936.160156 1082.621094 1912.839844 C 1098.988281 1889.519531 1115.929688 1850.871094 1135.851562 1823.691406 C 1155.761719 1796.515625 1178.808594 1780.390625 1202.160156 1764.0625 C 1203.019531 1763.476562 1203.421875 1762.398438 1203.128906 1761.394531 C 1202.851562 1760.386719 1201.949219 1759.675781 1200.910156 1759.628906 "/>
<path fill-rule="nonzero" fill="rgb(33.325195%, 59.959412%, 100%)" fill-opacity="1" d="M 2498.960938 339.589844 L 3035.980469 337.78125 C 3083.359375 337.621094 3121.601562 377.800781 3121.730469 427.71875 L 3122.398438 685.601562 C 3122.53125 735.519531 3084.5 775.699219 3037.121094 775.871094 L 2560.828125 777.558594 L 2507.691406 836.46875 C 2507.691406 836.46875 2510.429688 777.660156 2500.101562 777.679688 C 2452.730469 777.769531 2414.480469 737.660156 2414.351562 687.738281 L 2413.679688 429.859375 C 2413.550781 379.941406 2451.589844 339.75 2498.960938 339.589844 "/>
<path fill-rule="nonzero" fill="rgb(100%, 100%, 100%)" fill-opacity="1" d="M 2543.800781 457.050781 L 2985.699219 458.210938 C 2994.058594 458.230469 3001.25 467.859375 3001.808594 479.808594 C 3002.378906 491.761719 2996.101562 501.378906 2987.738281 501.359375 L 2545.851562 500.199219 C 2537.488281 500.179688 2530.300781 490.550781 2529.730469 478.601562 C 2529.171875 466.648438 2535.441406 457.03125 2543.800781 457.050781 "/>
<path fill-rule="nonzero" fill="rgb(100%, 100%, 100%)" fill-opacity="1" d="M 2542.78125 602.328125 L 2819.511719 602.800781 C 2827.871094 602.808594 2835.050781 612.441406 2835.621094 624.398438 C 2836.191406 636.351562 2829.910156 645.960938 2821.550781 645.949219 L 2544.820312 645.480469 C 2536.460938 645.46875 2529.269531 635.828125 2528.710938 623.878906 C 2528.140625 611.929688 2534.421875 602.320312 2542.78125 602.328125 "/>
</svg>
