<svg width="585" height="590" viewBox="0 0 585 473" fill="none" xmlns="http://www.w3.org/2000/svg">
<path d="M577.969 437.072L581.7 452.726C581.935 459.086 578.24 459.734 576.596 460.035C562.024 462.761 563.203 453.982 563.203 453.982L557.828 437.072H577.969Z" fill="#FFB885"/>
<path d="M581.698 452.726C582.307 452.888 582.849 453.238 583.247 453.725C583.646 454.213 583.881 454.813 583.918 455.442C584.133 457.733 584.898 465.527 584.898 465.527C584.898 465.527 585.756 469.672 582.397 469.672H537.695C537.695 469.672 538.206 463.848 547.24 460.132C553.656 457.483 563.216 454.007 563.216 454.007C563.216 454.007 564.456 457.519 572.102 457.407C581.468 457.238 581.698 452.726 581.698 452.726Z" fill="#1C3641"/>
<path d="M527.351 227.448L512.289 239.697C512.289 239.697 514.55 301.907 518.858 318.985C523.11 335.829 555.751 443.409 555.751 443.409L582.461 439.81C582.461 439.81 565.107 340.484 555.215 312.355C555.215 312.355 563.729 260.124 557.134 231.852C551.438 207.429 527.351 227.448 527.351 227.448Z" fill="#1C3641"/>
<path d="M469.58 214.741C469.58 214.741 457.116 219.555 452.344 219.738C447.571 219.922 446.346 218.937 444.555 218.462C442.763 217.988 440.839 219.009 443.054 221.372C444.489 222.818 446.393 223.703 448.424 223.868C448.424 223.868 439.517 228.579 435.602 229.962C431.687 231.345 430.018 232.085 430.615 233.479C431.059 234.5 441.227 231.33 441.227 231.33C441.227 231.33 432.039 234.632 430.151 235.413C427.981 236.286 428.727 238.654 430.151 238.261C431.172 237.981 441.38 234.796 441.38 234.796C441.38 234.796 434.061 237.792 432.192 238.506C429.952 239.359 430.212 242.243 433.392 241.222C436.572 240.201 442.906 238.093 442.906 238.093C440.471 239.206 437.966 240.161 435.408 240.951C433.591 241.508 433.907 243.784 436.301 243.401C438.695 243.018 442.88 242.967 447.995 240.619C454.288 237.72 461.97 228.88 472.076 226.757L469.58 214.741Z" fill="#FFB885"/>
<path d="M527.718 180.661L458.414 215.547L465.56 231.651C465.56 231.651 522.976 211.934 538.549 202.414C549.635 195.646 561.007 189.287 548.757 138.771C546.568 129.721 522.956 139.389 522.348 143.931C520.904 154.941 527.718 180.661 527.718 180.661Z" fill="#F7C546"/>
<path d="M449.639 469.335H159.157C155.443 469.335 151.766 468.603 148.335 467.182C144.904 465.761 141.786 463.677 139.161 461.051C136.535 458.425 134.452 455.307 133.031 451.876C131.61 448.444 130.88 444.767 130.88 441.053V38.2345L102.562 0.918213H421.357C428.855 0.916859 436.047 3.89403 441.351 9.19491C446.655 14.4958 449.636 21.6863 449.639 29.1849V469.335Z" fill="white"/>
<path d="M449.95 469.675H159.157C151.58 469.664 144.316 466.649 138.958 461.291C133.6 455.933 130.585 448.669 130.574 441.092V38.3755L101.93 0.604858H421.357C428.934 0.61566 436.198 3.63056 441.556 8.9886C446.914 14.3466 449.929 21.6106 449.94 29.188L449.95 469.675ZM103.196 1.23267L131.176 38.1305V441.056C131.184 448.47 134.133 455.579 139.376 460.822C144.619 466.065 151.728 469.013 159.142 469.022H449.322V29.188C449.311 21.7753 446.361 14.6695 441.119 9.42893C435.876 4.18833 428.769 1.24077 421.357 1.23267H103.196Z" fill="#1C3641"/>
<path d="M420.429 112.459H322.68V115.629H420.429V112.459Z" fill="#E3F5FF"/>
<path d="M318.126 112.459H228.992V115.629H318.126V112.459Z" fill="#E3F5FF"/>
<path d="M420.434 125.272H400.242V128.442H420.434V125.272Z" fill="#E3F5FF"/>
<path d="M395.068 125.272H283.094V128.442H395.068V125.272Z" fill="#E3F5FF"/>
<path d="M278.298 125.272H228.992V128.442H278.298V125.272Z" fill="#E3F5FF"/>
<path d="M420.43 138.081H335.094V141.25H420.43V138.081Z" fill="#E3F5FF"/>
<path d="M330.1 138.081H228.992V141.25H330.1V138.081Z" fill="#E3F5FF"/>
<path d="M420.429 150.886H387.742V154.055H420.429V150.886Z" fill="#E3F5FF"/>
<path d="M382.81 150.886H228.992V154.055H382.81V150.886Z" fill="#E3F5FF"/>
<path d="M420.432 163.691H298.586V166.86H420.432V163.691Z" fill="#E3F5FF"/>
<path d="M293.34 163.691H228.992V166.86H293.34V163.691Z" fill="#E3F5FF"/>
<path d="M420.434 192.53H287.742V195.699H420.434V192.53Z" fill="#E3F5FF"/>
<path d="M281.556 192.53H160.562V195.699H281.556V192.53Z" fill="#E3F5FF"/>
<path d="M420.433 205.335H393.023V208.505H420.433V205.335Z" fill="#E3F5FF"/>
<path d="M386.001 205.335H234V208.505H386.001V205.335Z" fill="#E3F5FF"/>
<path d="M227.493 205.335H160.562V208.505H227.493V205.335Z" fill="#E3F5FF"/>
<path d="M420.429 218.144H304.586V221.313H420.429V218.144Z" fill="#E3F5FF"/>
<path d="M297.813 218.144H160.562V221.313H297.813V218.144Z" fill="#E3F5FF"/>
<path d="M420.433 230.952H376.062V234.122H420.433V230.952Z" fill="#E3F5FF"/>
<path d="M369.363 230.952H160.562V234.122H369.363V230.952Z" fill="#E3F5FF"/>
<path d="M420.423 243.757H255.023V246.927H420.423V243.757Z" fill="#E3F5FF"/>
<path d="M247.915 243.757H160.562V246.927H247.915V243.757Z" fill="#E3F5FF"/>
<path d="M227.105 272.95H160.562V276.12H227.105V272.95Z" fill="#E3F5FF"/>
<path d="M291.103 272.95H233.758V276.12H291.103V272.95Z" fill="#E3F5FF"/>
<path d="M204.019 285.755H160.562V288.925H204.019V285.755Z" fill="#E3F5FF"/>
<path d="M291.103 285.755H211.57V288.925H291.103V285.755Z" fill="#E3F5FF"/>
<path d="M248.124 298.564H160.562V301.734H248.124V298.564Z" fill="#E3F5FF"/>
<path d="M291.103 298.564H253.414V301.734H291.103V298.564Z" fill="#E3F5FF"/>
<path d="M291.106 311.369H160.562V314.539H291.106V311.369Z" fill="#E3F5FF"/>
<path d="M199.446 324.174H160.562V327.344H199.446V324.174Z" fill="#E3F5FF"/>
<path d="M291.096 324.174H204.336V327.344H291.096V324.174Z" fill="#E3F5FF"/>
<path d="M236.43 336.983H160.562V340.153H236.43V336.983Z" fill="#E3F5FF"/>
<path d="M291.108 336.983H242.797V340.153H291.108V336.983Z" fill="#E3F5FF"/>
<path d="M179.458 349.788H160.562V352.958H179.458V349.788Z" fill="#E3F5FF"/>
<path d="M291.106 349.788H185.844V352.958H291.106V349.788Z" fill="#E3F5FF"/>
<path d="M272.879 362.597H160.562V365.767H272.879V362.597Z" fill="#E3F5FF"/>
<path d="M420.428 362.597H280.391V365.767H420.428V362.597Z" fill="#E3F5FF"/>
<path d="M237.032 375.406H161.164V378.575H237.032V375.406Z" fill="#E3F5FF"/>
<path d="M421.037 375.406H244.914V378.575H421.037V375.406Z" fill="#E3F5FF"/>
<path d="M420.435 31.298H159.297V81.6911H420.435V31.298Z" fill="#F7C546"/>
<path d="M131.25 112.459H74.5941V28.9149C74.5941 25.1962 75.3265 21.5139 76.7496 18.0782C78.1727 14.6425 80.2586 11.5208 82.8882 8.89126C85.5177 6.26172 88.6394 4.17584 92.0751 2.75274C95.5108 1.32964 99.1931 0.597183 102.912 0.597183C110.422 0.597183 117.625 3.58065 122.936 8.89126C128.246 14.2019 131.23 21.4046 131.23 28.9149V112.459H131.25Z" fill="#1C3641"/>
<path d="M187.512 408.218V441.191C187.51 448.161 184.939 454.885 180.29 460.078C175.64 465.27 169.24 468.566 162.312 469.335H486.298C494.22 469.334 501.817 466.186 507.419 460.583C513.02 454.981 516.167 447.383 516.167 439.461V408.218H187.512Z" fill="white"/>
<path d="M486.294 469.676H162.309L162.273 469.012C169.122 468.262 175.451 465.007 180.045 459.873C184.639 454.74 187.173 448.089 187.161 441.2V407.916H516.48V439.49C516.467 447.492 513.282 455.162 507.624 460.82C501.966 466.478 494.296 469.662 486.294 469.676ZM166.102 469.012H486.294C494.126 469.003 501.634 465.887 507.172 460.349C512.709 454.81 515.824 447.302 515.832 439.47V408.554H187.83V441.22C187.838 447.615 185.702 453.828 181.763 458.865C177.824 463.903 172.31 467.474 166.102 469.007V469.012Z" fill="#1C3641"/>
<path d="M488.081 375.103L492.093 391.605L492.502 397.541C472.146 403.707 473.616 392.856 473.616 392.856L468.344 375.66L488.081 375.103Z" fill="#FFB885"/>
<path d="M512.136 223.91L495.568 234.062C495.568 234.062 431.296 271.526 430.444 288.11C429.592 304.693 467.291 386.349 467.291 386.349L492.5 381.668C492.5 381.668 480.419 315.825 468.863 297.731C468.863 297.731 546.093 276.61 544.537 242.54C543.388 217.468 512.136 223.91 512.136 223.91Z" fill="#1C3641"/>
<path d="M514.365 279.632C514.259 279.634 514.156 279.601 514.071 279.538C513.987 279.475 513.926 279.385 513.899 279.283C513.871 279.181 513.88 279.072 513.922 278.975C513.964 278.879 514.037 278.799 514.13 278.749C534.547 267.223 544.632 255.05 544.061 242.56C544.067 242.442 544.117 242.331 544.2 242.248C544.284 242.164 544.396 242.115 544.514 242.11C544.632 242.105 544.748 242.144 544.839 242.22C544.929 242.296 544.989 242.402 545.005 242.519C545.592 255.392 535.363 267.856 514.595 279.57C514.524 279.61 514.445 279.631 514.365 279.632Z" fill="#F0F2F3"/>
<path d="M498.858 116.333C499.174 116.511 499.501 116.675 499.832 116.843C500.251 117.047 500.675 117.231 501.103 117.399H501.165C502.176 117.798 503.217 118.115 504.278 118.349C507.637 119.056 511.096 119.146 514.486 118.614C518.901 117.935 522.924 116.322 525.481 114.209C526.243 113.608 526.903 112.887 527.436 112.076C527.507 111.969 527.568 111.856 527.635 111.749C529.763 108.125 529.845 102.526 529.845 102.526L528.569 94.7626C526.466 91.9757 528.012 74.7748 528.012 74.7748C509.127 64.3011 492.666 75.4026 492.666 75.4026C488.716 91.8583 489.175 110.932 498.858 116.333Z" fill="#FFB885"/>
<path d="M508.961 109.738L511.957 138.642C525.039 141.817 532.991 134.273 532.991 134.273L528.397 106.042C518.914 110.217 508.961 109.738 508.961 109.738Z" fill="#FFB885"/>
<path d="M527.07 64.7508C527.07 64.7508 535.66 62.0864 538.146 68.6044C542.601 80.2724 534.108 101.327 531.658 108.095C531.107 109.626 529.984 110.877 528.351 110.897L518.622 111.158C517.863 111.162 517.129 110.884 516.563 110.377C515.997 109.871 515.639 109.172 515.56 108.417L514.784 100.934C514.784 100.934 517.933 99.8825 518.168 97.0651C518.377 94.513 516.759 93.5942 515.305 93.2676C515.059 93.2176 514.804 93.2237 514.561 93.2856C514.318 93.3474 514.091 93.4634 513.899 93.6248C513.707 93.7862 513.554 93.9888 513.45 94.2178C513.347 94.4467 513.297 94.6959 513.304 94.9468L513.334 96.3862L512.313 97.4377L511.221 86.9078L508.103 82.5693L509.501 75.8676C509.501 75.8676 482.847 79.7161 483.577 66.2667C484.307 52.8173 515.713 43.5686 527.07 64.7508Z" fill="#411919"/>
<path d="M492.092 391.609C492.7 391.771 493.241 392.121 493.639 392.608C494.037 393.096 494.27 393.696 494.307 394.325C494.522 396.611 495.287 404.405 495.287 404.405C495.287 404.405 496.145 408.555 492.786 408.555H445.828C445.828 408.555 445.828 403.405 454.837 399.689C461.253 397.04 473.61 392.86 473.61 392.86C473.61 392.86 474.85 396.376 482.501 396.259C491.857 396.116 492.092 391.609 492.092 391.609Z" fill="#1C3641"/>
<path d="M557.849 235.393C557.849 235.393 558.078 168.018 552.632 147.122C547.186 126.225 531.302 126.225 520.634 127.144C509.967 128.063 490.372 128.742 491.474 155.982C492.577 183.223 495.752 215.476 494.312 234.938C494.312 234.938 524.707 251.726 557.849 235.393Z" fill="#F7C546"/>
<path d="M346.239 95.248C347.231 95.6973 348.345 95.8032 349.404 95.5491C350.361 95.2675 351.242 94.7738 351.982 94.1047C353.103 93.0707 354.156 91.966 355.136 90.7972L356.631 89.0873L386.981 55.0172L388.685 55.691L388.578 102.348C388.588 103.916 388.491 105.483 388.287 107.039C388.157 108.361 387.839 109.659 387.343 110.892L392.284 112.51L391.049 115.639L374.787 109.218L375.711 106.875C378.521 107.933 380.367 107.348 381.249 105.119C381.65 103.955 381.853 102.732 381.851 101.501L382.004 93.8444L363.369 86.9844C361.895 88.6484 360.068 90.8601 357.887 93.6198C356.795 94.9809 355.558 96.3811 354.176 97.8205L359.837 99.7039L358.607 102.828L345.336 97.5908L346.239 95.248ZM382.045 90.8278L382.356 75.2704L382.606 65.2765L382.463 65.2204L376.313 72.065L368.218 81.3443L365.666 84.3456L382.045 90.8278Z" fill="#1C3641"/>
<path d="M494.655 227.021C494.593 227.021 494.532 227.009 494.474 226.985C494.417 226.961 494.366 226.926 494.323 226.882C494.279 226.837 494.245 226.785 494.223 226.727C494.2 226.67 494.189 226.608 494.19 226.547C494.333 216.527 493.721 204.211 493.103 193.492C493.098 193.429 493.106 193.366 493.126 193.307C493.145 193.247 493.177 193.192 493.218 193.144C493.259 193.097 493.31 193.058 493.366 193.03C493.423 193.002 493.484 192.986 493.547 192.982C493.61 192.975 493.674 192.982 493.734 193.001C493.795 193.021 493.85 193.052 493.898 193.094C493.946 193.135 493.985 193.186 494.012 193.243C494.04 193.3 494.055 193.363 494.057 193.426C494.68 204.145 495.293 216.502 495.145 226.552C495.145 226.615 495.133 226.678 495.109 226.737C495.084 226.796 495.047 226.849 495.002 226.893C494.956 226.937 494.901 226.971 494.841 226.993C494.782 227.015 494.718 227.025 494.655 227.021Z" fill="#1C3641"/>
<path d="M406.394 96.3261C406.394 96.3261 396.375 88.9608 393.848 85.3318C391.322 81.7028 391.485 80.2277 390.974 78.5637C390.464 76.8998 388.683 75.9198 387.912 78.8444C387.495 80.6953 387.754 82.6342 388.642 84.311C388.642 84.311 380.475 79.6866 377.449 77.3081C374.422 74.9296 372.988 73.9904 372.196 75.1541C371.599 76.027 379.194 82.402 379.194 82.402C379.194 82.402 372.013 76.8691 370.456 75.7666C368.685 74.5008 367.194 76.2771 368.215 77.1907C368.945 77.844 376.545 84.2497 376.545 84.2497C376.545 84.2497 370.558 79.9878 369.027 78.8751C367.24 77.548 365.102 79.1915 367.495 81.177C369.889 83.1625 374.713 87.0723 374.713 87.0723C372.621 85.7186 370.619 84.2302 368.72 82.6164C367.368 81.4782 365.745 82.8614 367.24 84.5509C368.736 86.2403 370.88 89.4917 375.279 92.3245C380.7 95.8106 391.464 97.4286 398.202 104.273L406.394 96.3261Z" fill="#FFB885"/>
<path d="M462.223 124.865L400.161 87.9772L391.484 101.881C391.484 101.881 435.344 136.798 450.616 144.245C461.452 149.569 462.223 124.865 462.223 124.865Z" fill="#F7C546"/>
<path d="M522.751 126.986L462.226 124.863L451.508 144.651C451.508 144.651 485.159 157.631 500.477 155.294C513.783 153.262 522.751 126.986 522.751 126.986Z" fill="#F7C546"/>
<path d="M496.6 156.237C494.845 156.224 493.093 156.067 491.364 155.768C491.242 155.744 491.136 155.673 491.066 155.571C490.996 155.469 490.97 155.344 490.992 155.223C491.014 155.101 491.083 154.993 491.184 154.922C491.285 154.851 491.41 154.823 491.532 154.844C491.588 154.844 497.147 155.865 500.352 154.844C500.471 154.806 500.6 154.818 500.711 154.876C500.821 154.934 500.904 155.033 500.942 155.152C500.979 155.272 500.967 155.401 500.909 155.511C500.851 155.622 500.752 155.705 500.633 155.742C499.32 156.102 497.961 156.269 496.6 156.237Z" fill="#1C3641"/>
<path d="M175.145 164.272C177.391 164.17 178.84 163.544 179.494 162.394C180.147 161.244 180.474 159.466 180.474 157.06V154.63L180.555 114.879L172.476 114.961C169.233 114.961 166.921 116.045 165.539 118.212C164.158 120.38 163.465 123.817 163.462 128.523H160.562L161.032 111.98H206.719L207.189 128.523H204.208C204.157 125.229 203.83 122.602 203.228 120.642C202.756 118.864 201.672 117.309 200.165 116.252C198.733 115.286 196.691 114.803 194.041 114.803H187.375L187.323 157.53C187.351 159.598 187.273 161.666 187.089 163.726L193.591 163.409V166.86H175.145V164.272Z" fill="#1C3641"/>
<path d="M417.289 272.95H314.043C312.306 272.95 310.898 274.358 310.898 276.094V349.931C310.898 351.667 312.306 353.075 314.043 353.075H417.289C419.025 353.075 420.433 351.667 420.433 349.931V276.094C420.433 274.358 419.025 272.95 417.289 272.95Z" fill="#1C3641"/>
<path d="M368.383 332.885H333.813C333.625 332.891 333.439 332.846 333.276 332.753C333.113 332.661 332.978 332.525 332.887 332.361C332.795 332.197 332.751 332.011 332.759 331.823C332.766 331.636 332.826 331.454 332.93 331.298L350.212 303.388C350.303 303.235 350.431 303.108 350.586 303.019C350.74 302.931 350.915 302.884 351.093 302.884C351.271 302.884 351.446 302.931 351.6 303.019C351.755 303.108 351.883 303.235 351.973 303.388L369.256 331.298C369.36 331.453 369.419 331.634 369.427 331.821C369.435 332.007 369.392 332.193 369.302 332.356C369.211 332.52 369.078 332.656 368.916 332.749C368.754 332.842 368.57 332.889 368.383 332.885Z" fill="white"/>
<path d="M401.822 332.883H358.141C357.953 332.889 357.768 332.844 357.604 332.751C357.441 332.659 357.306 332.523 357.215 332.359C357.123 332.195 357.079 332.009 357.087 331.821C357.094 331.633 357.154 331.452 357.258 331.295L379.099 296.021C379.188 295.866 379.317 295.738 379.472 295.648C379.627 295.559 379.803 295.512 379.982 295.512C380.16 295.512 380.336 295.559 380.491 295.648C380.646 295.738 380.775 295.866 380.865 296.021L402.721 331.295C402.826 331.453 402.885 331.636 402.892 331.825C402.899 332.014 402.854 332.201 402.761 332.366C402.667 332.531 402.53 332.666 402.365 332.757C402.199 332.849 402.011 332.892 401.822 332.883Z" fill="white"/>
<path d="M70.7435 254.933C70.7435 254.933 51.8225 234.823 44.1203 256.658C36.4182 278.494 27.9402 313.845 4.0835 288.396C4.0835 288.396 2.51653 325.304 33.5395 320.771C66.9256 315.886 48.8213 264.855 53.2159 257.602C57.6106 250.349 66.7674 259.134 66.7674 259.134L70.7435 254.933Z" fill="#411919"/>
<path d="M63.1312 290.698C63.1312 290.698 52.6473 283.042 57.5166 262.314C61.799 244.077 100.616 232.255 110.492 262.732L63.1312 290.698Z" fill="#411919"/>
<path d="M103.33 403.2C103.33 403.2 132.904 412.224 143.852 412.035C146.634 411.989 139.769 422.391 139.769 422.391C139.769 422.391 126.289 422.902 106.699 421.927C85.2615 420.875 81.806 414.623 85.6239 387.418C90.6362 351.74 94.1529 337.127 103.09 338.658C115.279 340.751 116.938 347.509 103.33 403.2Z" fill="#FFB885"/>
<path d="M138.977 411.964C138.977 411.964 147.557 412.505 154.141 410.688C160.725 408.871 165.013 409.79 170.586 413.296C176.16 416.803 180.652 421.912 181.06 423.504C181.468 425.097 180.284 426.225 178.671 424.862C177.059 423.499 171.811 418.63 170.112 417.609C170.112 417.609 174.961 422.04 176.109 423.413C177.258 424.786 176.451 426.102 174.19 425.133C171.929 424.163 168.698 420.973 166.712 419.62C164.727 418.268 157.479 418.992 157.479 418.992C157.479 418.992 161.879 419.916 163.461 420.069C165.043 420.223 166.355 420.284 166.125 422.427C165.896 424.571 164.681 424.602 160.781 424.877C156.882 425.153 151.844 424.985 149.042 423.857C146.24 422.729 141.723 422.494 139.232 422.402L138.977 411.964Z" fill="#FFB885"/>
<path d="M93.9747 317.178C93.9747 317.178 120.036 331.541 114.738 375.442H93.5L93.9747 317.178Z" fill="#F7C546"/>
<path d="M274.217 444.095V465.593C274.217 470.815 270.093 470.912 266.79 470.912H244.281L245.113 454.124L260.824 454.441C260.824 454.441 265.642 429.374 269.455 427.741C273.268 426.108 274.217 433.029 274.217 444.095Z" fill="#FFB885"/>
<path d="M267.586 449.227C267.586 449.227 263.063 448.083 262.063 446.818C261.063 445.552 264.293 435.134 266.146 430.852C267.218 428.376 270.087 426.258 272.674 428.708C274.354 430.306 274.206 435.747 274.206 435.747V449.528C274.206 449.528 272.077 450.625 267.586 449.227Z" fill="#1C3641"/>
<path d="M274.209 446.818V469.863C274.209 470.134 274.101 470.393 273.91 470.585C273.718 470.776 273.459 470.884 273.188 470.884H272.535C272.264 470.884 272.004 470.776 271.813 470.585C271.621 470.393 271.514 470.134 271.514 469.863V446.818H274.234H274.209Z" fill="#1C3641"/>
<path d="M16.6797 419.888V439.437C16.6797 447.78 19.9939 455.781 25.8932 461.68C31.7925 467.579 39.7936 470.894 48.1365 470.894H249.974V450.528L71.8911 425.844L16.6797 419.888Z" fill="#1C3641"/>
<path d="M105.652 276.524C105.652 276.524 126.732 269.603 116.371 261.753C106.009 253.903 90.1406 256.832 90.1406 256.832L105.652 276.524Z" fill="#411919"/>
<path d="M99.4036 417.705C99.4036 417.705 99.4036 402.75 101.027 382.997C103.461 353.296 117.421 323.182 85.2907 313.438C47.4691 301.954 29.2779 309.401 21.2134 339.975C13.0059 371.11 18.2122 393.537 16.6809 419.885C16.6809 419.885 71.826 425.142 99.4036 417.705Z" fill="#F7C546"/>
<path d="M99.4004 418.256C99.5444 418.254 99.682 418.196 99.7833 418.094C99.8846 417.992 99.9415 417.854 99.9414 417.71C99.9414 417.562 99.967 402.55 101.565 383.032C102.075 376.79 103.096 370.507 104.117 364.422L104.254 363.565C104.278 363.423 104.244 363.277 104.161 363.16C104.077 363.043 103.95 362.963 103.808 362.94C103.666 362.916 103.52 362.95 103.403 363.033C103.285 363.117 103.206 363.244 103.183 363.386L103.04 364.249C102.044 370.348 100.998 376.657 100.488 382.945C98.8798 402.509 98.8594 417.562 98.8594 417.71C98.8594 417.854 98.9162 417.992 99.0175 418.094C99.1188 418.196 99.2565 418.254 99.4004 418.256Z" fill="#1C3641"/>
<path d="M62.5632 319.157C67.5346 322.643 81.622 323.919 81.1065 316.748C80.9628 314.071 81.0894 311.386 81.4842 308.734C81.5965 307.877 81.7343 307.045 81.8773 306.233L82.0151 305.468C82.5697 302.543 83.3217 299.659 84.266 296.837L82.4183 295.913L65.0642 287.236C64.8192 287.802 64.6661 285.306 64.4926 285.858C62.954 290.931 61.7284 296.094 60.8227 301.318C59.123 311.445 58.4901 316.304 62.5632 319.157Z" fill="#FFB885"/>
<path d="M68.4219 298.466C68.4219 298.466 68.6771 306.01 81.4783 308.736C81.5905 307.878 81.7284 307.046 81.8713 306.235L82.0091 305.469C83.4893 305.812 84.9948 306.036 86.5109 306.138C87.1847 306.178 87.8533 306.194 88.5526 306.173C89.7878 302.115 86.4293 295.184 86.4293 295.184L82.4378 295.914L68.4219 298.466Z" fill="#E59157"/>
<path d="M64.4927 285.839C64.0997 288.197 63.916 290.642 64.3498 292.337C64.3855 292.464 64.4162 292.602 64.4519 292.735C64.7665 293.731 65.2349 294.671 65.8402 295.522C66.5875 296.596 67.4539 297.582 68.4229 298.462C72.2965 301.896 76.9699 304.304 82.0152 305.465C83.4954 305.808 85.0009 306.032 86.5171 306.133C87.1908 306.174 87.8595 306.189 88.5587 306.169C89.5766 306.15 90.5917 306.056 91.5957 305.888C91.9836 305.822 92.3715 305.75 92.7543 305.658C104.371 302.964 109.685 286.462 110.517 268.286C110.517 268.286 98.3842 254.913 74.1702 257.057C74.1702 257.057 73.2259 270.2 70.2145 272.451C70.2145 272.451 63.2728 267.316 61.2771 273.181C59.5876 278.147 65.391 281.638 65.391 281.638C65.391 281.638 65.1307 282.077 64.5182 285.814L64.4927 285.839Z" fill="#FFB885"/>
<path d="M21.676 382.13C21.676 382.13 67.5163 391.139 78.4187 390.123C81.1902 389.863 75.1265 400.76 75.1265 400.76C75.1265 400.76 46.0329 400.025 26.4382 400.551C5.00079 401.123 -5.41675 393.946 2.81111 367.731C13.2338 334.554 33.4717 323.116 42.5009 323.963C54.8223 325.127 41.9649 333.498 21.676 382.13Z" fill="#FFB885"/>
<path d="M73.5625 390.43C73.5625 390.43 82.1579 390.328 88.5687 388.011C94.9795 385.693 99.3435 386.291 105.162 389.363C110.981 392.436 115.866 397.193 116.376 398.724C116.886 400.255 115.809 401.496 114.1 400.255C112.39 399.015 106.801 394.559 105.03 393.686C105.03 393.686 110.2 397.739 111.451 399.02C112.701 400.301 111.992 401.68 109.669 400.878C107.347 400.077 103.876 397.147 101.793 395.953C99.711 394.758 92.5397 396.024 92.5397 396.024C92.5397 396.024 96.9956 396.611 98.5881 396.642C100.181 396.672 101.487 396.642 101.421 398.796C101.355 400.95 100.15 401.072 96.2759 401.644C92.4019 402.215 87.3743 402.43 84.4751 401.496C81.576 400.562 77.0792 400.694 74.5833 400.791L73.5625 390.43Z" fill="#FFB885"/>
<path d="M127.141 404.672H29.8966C29.1264 404.672 28.3877 404.366 27.843 403.822C27.2984 403.277 26.9924 402.538 26.9924 401.768V400.002H127.141V404.672Z" fill="#D3E7F9"/>
<path d="M80.2738 404.674H160.021C160.542 404.675 161.049 404.497 161.455 404.17C161.862 403.843 162.145 403.387 162.256 402.877L176.063 340.224C176.135 339.89 176.132 339.544 176.053 339.212C175.975 338.879 175.823 338.568 175.608 338.302C175.394 338.036 175.123 337.821 174.815 337.673C174.507 337.525 174.169 337.448 173.827 337.448H94.0805C93.5594 337.447 93.0539 337.625 92.6482 337.952C92.2424 338.279 91.9607 338.735 91.8499 339.244L78.0688 401.897C77.996 402.229 77.998 402.573 78.0746 402.903C78.1512 403.234 78.3004 403.544 78.5116 403.81C78.7227 404.075 78.9904 404.291 79.2952 404.441C79.6 404.59 79.9343 404.67 80.2738 404.674Z" fill="#D3E7F9"/>
<path d="M134.41 376.428C137.894 373.212 138.497 368.198 135.758 365.23C133.018 362.262 127.972 362.463 124.488 365.679C121.004 368.895 120.401 373.908 123.141 376.877C125.881 379.845 130.926 379.644 134.41 376.428Z" fill="#EEF8FF"/>
<path d="M6.63281 350.273C19.1941 325.558 33.1335 312.752 48.3846 309.072C58.4245 306.653 56.3063 332.383 31.393 364.462L6.63281 350.273Z" fill="#F7C546"/>
<path d="M31.2463 364.988C31.3465 365.016 31.4524 365.016 31.5526 364.988C31.6914 364.947 31.8087 364.854 31.8792 364.727C33.8188 361.18 35.6563 357.679 37.3406 354.32C37.4083 354.191 37.4219 354.04 37.3783 353.901C37.3348 353.761 37.2377 353.645 37.1084 353.577C36.9791 353.51 36.8283 353.496 36.689 353.54C36.5497 353.583 36.4334 353.68 36.3658 353.81C34.7682 357 33.0277 360.323 31.1902 363.691L25.8308 360.629C25.7068 360.571 25.5656 360.562 25.4353 360.604C25.305 360.645 25.195 360.734 25.127 360.853C25.059 360.971 25.038 361.111 25.0681 361.245C25.0983 361.378 25.1774 361.495 25.2898 361.573L31.1391 364.937L31.2463 364.988Z" fill="#1C3641"/>
<path d="M18.3123 384.27C18.3956 384.266 18.4768 384.243 18.5488 384.201C18.6209 384.159 18.6816 384.1 18.7257 384.03C19.6853 382.575 21.926 382.626 21.9515 382.626C22.0223 382.632 22.0937 382.624 22.161 382.601C22.2283 382.578 22.2902 382.542 22.3425 382.494C22.3949 382.446 22.4367 382.387 22.4652 382.322C22.4936 382.257 22.5082 382.187 22.5079 382.116C22.5135 381.974 22.4631 381.835 22.3676 381.73C22.2721 381.625 22.1392 381.562 21.9975 381.554C21.8801 381.554 19.129 381.488 17.8325 383.443C17.7529 383.563 17.7244 383.71 17.7531 383.852C17.7818 383.994 17.8654 384.118 17.9856 384.198C18.0834 384.258 18.1985 384.283 18.3123 384.27Z" fill="#1C3641"/>
<path d="M110.498 268.29C110.498 268.29 75.8156 278.386 70.1755 272.475C56.9558 258.566 75.688 253.901 75.688 253.901C75.688 253.901 106.231 255.81 110.498 268.29Z" fill="#411919"/>
<path d="M242.061 446.606L231.22 465.155C228.586 469.661 224.977 467.666 222.124 466.002L202.688 454.65L211.875 440.573L225.284 448.74C225.284 448.74 242.091 429.528 246.21 430.038C250.329 430.548 247.645 437.051 242.061 446.606Z" fill="#FFB885"/>
<path d="M233.766 447.692C233.766 447.692 230.438 444.421 230.193 442.823C229.948 441.225 238.012 433.86 241.769 431.083C243.943 429.481 247.496 429.093 248.491 432.528C249.134 434.753 246.271 439.383 246.271 439.383L239.314 451.301C239.314 451.301 236.91 451.163 233.766 447.692Z" fill="#1C3641"/>
<path d="M243.236 450.17L230.828 471.512C230.692 471.745 230.47 471.915 230.21 471.984C229.949 472.052 229.672 472.015 229.439 471.88L228.878 471.553C228.645 471.418 228.475 471.195 228.406 470.935C228.337 470.675 228.375 470.398 228.51 470.165L240.918 448.823L243.258 450.183L243.236 450.17Z" fill="#1C3641"/>
<path d="M16.6768 419.891L115.493 386.525C119.289 385.199 123.334 384.735 127.332 385.169C131.33 385.602 135.181 386.922 138.604 389.031L222.312 442.875L209.225 463.077L124.859 422.499C124.859 422.499 73.1337 457.233 57.4844 462.5C25.1752 473.362 16.4318 451.996 16.6768 419.891Z" fill="#1C3641"/>
<path d="M180.685 449.362C180.63 449.473 180.534 449.557 180.417 449.597C180.301 449.637 180.173 449.63 180.062 449.577L124.861 423.035C121.125 425.531 72.5995 457.891 57.5984 462.939C57.5398 462.959 57.4778 462.967 57.4161 462.963C57.3543 462.959 57.294 462.943 57.2385 462.915C57.1831 462.888 57.1336 462.849 57.0929 462.803C57.0522 462.756 57.021 462.702 57.0013 462.643C56.9815 462.585 56.9735 462.523 56.9776 462.461C56.9818 462.399 56.9981 462.339 57.0256 462.283C57.0531 462.228 57.0912 462.178 57.1379 462.138C57.1845 462.097 57.2387 462.066 57.2973 462.046C72.7067 456.86 124.044 422.448 124.56 422.101C124.629 422.059 124.707 422.033 124.788 422.027C124.868 422.021 124.949 422.034 125.024 422.065L180.486 448.745C180.594 448.8 180.676 448.897 180.713 449.012C180.75 449.128 180.74 449.254 180.685 449.362Z" fill="#F0F2F3"/>
</svg>
