<svg width="740" height="821" viewBox="0 0 740 421" fill="none" xmlns="http://www.w3.org/2000/svg">
<path d="M593.75 53.957H407.193V197.94H593.75V53.957Z" fill="white"/>
<path d="M406.443 53.208V198.691H594.5V53.207L406.443 53.208ZM407.943 197.191V67.633H593V197.191H407.943Z" fill="url(#paint0_linear_1347_408)"/>
<path d="M413.264 62.8447C414.533 62.8447 415.562 61.819 415.562 60.5537C415.562 59.2884 414.533 58.2627 413.264 58.2627C411.995 58.2627 410.966 59.2884 410.966 60.5537C410.966 61.819 411.995 62.8447 413.264 62.8447Z" fill="white"/>
<path d="M420.696 62.8447C421.965 62.8447 422.994 61.819 422.994 60.5537C422.994 59.2884 421.965 58.2627 420.696 58.2627C419.427 58.2627 418.398 59.2884 418.398 60.5537C418.398 61.819 419.427 62.8447 420.696 62.8447Z" fill="white"/>
<path d="M428.128 62.8447C429.397 62.8447 430.426 61.819 430.426 60.5537C430.426 59.2884 429.397 58.2627 428.128 58.2627C426.859 58.2627 425.83 59.2884 425.83 60.5537C425.83 61.819 426.859 62.8447 428.128 62.8447Z" fill="white"/>
<path d="M500.471 80.8984H419.825V94.2544H500.471V80.8984Z" fill="#E0EDFF"/>
<path d="M500.471 98.707H419.825V112.063H500.471V98.707Z" fill="#E0EDFF"/>
<path d="M500.471 116.517H419.825V129.873H500.471V116.517Z" fill="#E0EDFF"/>
<path d="M500.471 134.326H419.825V147.682H500.471V134.326Z" fill="#E0EDFF"/>
<path d="M500.471 152.136H419.825V165.492H500.471V152.136Z" fill="#E0EDFF"/>
<path d="M500.471 169.945H419.825V183.301H500.471V169.945Z" fill="#E2F5FA"/>
<circle cx="550.75" cy="149.959" r="6" fill="white"/>
<rect x="548.75" y="152.959" width="4" height="9" fill="white"/>
<path d="M264.531 116.03H146.75V206.933H264.531V116.03Z" fill="white"/>
<path d="M146 115.28V207.68H265.282V115.28H146ZM147.5 206.18V124.664H263.782V206.183L147.5 206.18Z" fill="url(#paint1_linear_1347_408)"/>
<path d="M150.583 121.64C151.384 121.64 152.034 120.993 152.034 120.194C152.034 119.395 151.384 118.748 150.583 118.748C149.782 118.748 149.132 119.395 149.132 120.194C149.132 120.993 149.782 121.64 150.583 121.64Z" fill="white"/>
<path d="M155.275 121.64C156.076 121.64 156.726 120.993 156.726 120.194C156.726 119.395 156.076 118.748 155.275 118.748C154.474 118.748 153.824 119.395 153.824 120.194C153.824 120.993 154.474 121.64 155.275 121.64Z" fill="white"/>
<path d="M159.967 121.64C160.768 121.64 161.418 120.993 161.418 120.194C161.418 119.395 160.768 118.748 159.967 118.748C159.166 118.748 158.516 119.395 158.516 120.194C158.516 120.993 159.166 121.64 159.967 121.64Z" fill="white"/>
<path d="M258 133.207H153V197.207H258V133.207Z" fill="#F0F6FF"/>
<path fill-rule="evenodd" clip-rule="evenodd" d="M499.887 169.614H241.008C237.57 169.625 234.274 170.988 231.832 173.409C229.391 175.83 228 179.115 227.96 182.553V352.827H512.935V182.553C512.899 179.114 511.509 175.827 509.067 173.405C506.625 170.983 503.327 169.621 499.887 169.614Z" fill="url(#paint2_linear_1347_408)" stroke="#911475" stroke-width="1.5" stroke-miterlimit="10"/>
<path d="M370.447 182.327C371.711 182.327 372.735 181.303 372.735 180.039C372.735 178.775 371.711 177.751 370.447 177.751C369.183 177.751 368.159 178.775 368.159 180.039C368.159 181.303 369.183 182.327 370.447 182.327Z" fill="#0055DC"/>
<path fill-rule="evenodd" clip-rule="evenodd" d="M524.319 365.959H216.628C200.628 365.959 189.859 363.507 189.859 361.173V354.073C189.901 353.699 190.089 353.357 190.381 353.119C190.674 352.882 191.047 352.769 191.422 352.805H549.522C549.897 352.769 550.271 352.882 550.564 353.119C550.857 353.356 551.045 353.699 551.088 354.073V361.459C551.086 363.299 542.744 365.959 524.319 365.959Z" fill="white"/>
<path fill-rule="evenodd" clip-rule="evenodd" d="M524.319 365.959H216.628C200.628 365.959 189.859 363.507 189.859 361.173V354.073C189.901 353.699 190.089 353.357 190.381 353.119C190.674 352.882 191.047 352.769 191.422 352.805H549.522C549.897 352.769 550.271 352.882 550.564 353.119C550.857 353.356 551.045 353.699 551.088 354.073V361.459C551.086 363.299 542.744 365.959 524.319 365.959Z" stroke="#0055DC" stroke-width="1.432" stroke-miterlimit="10"/>
<path d="M500.969 189.971H239.442V342.38H500.969V189.971Z" fill="white"/>
<path d="M500.411 189.959H239.75V200.769H500.411V189.959Z" fill="url(#paint3_linear_1347_408)" stroke="url(#paint4_linear_1347_408)" stroke-miterlimit="10"/>
<path d="M248.551 197.62C249.649 197.62 250.539 196.73 250.539 195.632C250.539 194.534 249.649 193.644 248.551 193.644C247.453 193.644 246.563 194.534 246.563 195.632C246.563 196.73 247.453 197.62 248.551 197.62Z" fill="white"/>
<path d="M254.98 197.62C256.078 197.62 256.968 196.73 256.968 195.632C256.968 194.534 256.078 193.644 254.98 193.644C253.882 193.644 252.992 194.534 252.992 195.632C252.992 196.73 253.882 197.62 254.98 197.62Z" fill="white"/>
<path d="M261.409 197.62C262.507 197.62 263.397 196.73 263.397 195.632C263.397 194.534 262.507 193.644 261.409 193.644C260.311 193.644 259.421 194.534 259.421 195.632C259.421 196.73 260.311 197.62 261.409 197.62Z" fill="white"/>
<path d="M191.422 353.56C190.943 353.56 190.609 353.833 190.609 354.078V361.178C190.609 362.289 198.609 365.214 216.628 365.214H524.32C543.308 365.214 550.039 362.441 550.343 361.431V354.083C550.343 353.838 550.008 353.565 549.528 353.565L191.422 353.56Z" fill="#C2DBFF"/>
<path d="M190.609 361.175C190.609 362.286 198.609 365.211 216.628 365.211H524.32C543.308 365.211 550.039 362.438 550.343 361.428L190.609 361.175Z" fill="white"/>
<path fill-rule="evenodd" clip-rule="evenodd" d="M549.525 352.059H191.422C190.849 352.023 190.284 352.215 189.851 352.593C189.418 352.971 189.151 353.504 189.109 354.077V361.177C189.109 364.811 202.952 366.713 216.628 366.713H524.32C540.52 366.713 551.833 364.552 551.84 361.456V354.082C551.799 353.508 551.532 352.973 551.099 352.594C550.665 352.215 550.1 352.023 549.525 352.059ZM524.325 365.208H216.628C198.61 365.208 190.609 362.283 190.609 361.172V354.072C190.609 353.827 190.943 353.554 191.422 353.554H331.303V354.938C331.303 356.087 333.58 356.438 335.382 356.438H405.618C407.331 356.438 409.592 356.091 409.592 354.938V353.559H549.525C550.005 353.559 550.34 353.832 550.34 354.077V361.425C550.039 362.438 543.308 365.211 524.32 365.211L524.325 365.208Z" fill="#911475"/>
<path d="M224.72 165.207C224.72 176.678 215.64 185.927 204.5 185.927C193.36 185.927 184.28 176.678 184.28 165.207C184.28 153.736 193.36 144.487 204.5 144.487C215.64 144.487 224.72 153.736 224.72 165.207Z" fill="white" stroke="url(#paint5_linear_1347_408)" stroke-width="2.56013"/>
<path d="M194 165.822L200.947 173.207L216 157.207" stroke="#FF6633" stroke-width="4"/>
<path d="M546 166.766C566.179 166.766 582.537 150.403 582.537 130.218C582.537 110.033 566.179 93.6699 546 93.6699C525.821 93.6699 509.463 110.033 509.463 130.218C509.463 150.403 525.821 166.766 546 166.766Z" fill="#FEEFD9"/>
<path d="M546 167.229C538.683 167.229 531.528 165.058 525.444 160.991C519.36 156.925 514.618 151.144 511.817 144.381C509.016 137.619 508.283 130.177 509.711 122.998C511.138 115.819 514.662 109.224 519.837 104.048C525.011 98.872 531.604 95.3466 538.782 93.9184C545.958 92.4902 553.398 93.2228 560.158 96.0239C566.919 98.825 572.698 103.569 576.764 109.655C580.83 115.741 583 122.897 583 130.217C582.989 140.029 579.087 149.438 572.151 156.376C565.214 163.315 555.81 167.218 546 167.229ZM546 94.1331C538.866 94.1331 531.89 96.2494 525.958 100.214C520.025 104.18 515.402 109.815 512.672 116.409C509.942 123.003 509.227 130.259 510.62 137.258C512.011 144.258 515.447 150.687 520.492 155.735C525.537 160.781 531.965 164.217 538.963 165.61C545.961 167.002 553.214 166.287 559.806 163.555C566.398 160.824 572.031 156.199 575.995 150.265C579.959 144.331 582.074 137.353 582.074 130.217C582.063 120.65 578.259 111.478 571.496 104.713C564.733 97.9484 555.564 94.1438 546 94.1331Z" fill="url(#paint6_linear_1347_408)"/>
<path d="M545.999 161.055C563.025 161.055 576.828 147.249 576.828 130.218C576.828 113.188 563.025 99.3809 545.999 99.3809C528.974 99.3809 515.171 113.188 515.171 130.218C515.171 147.249 528.974 161.055 545.999 161.055Z" fill="white"/>
<path fill-rule="evenodd" clip-rule="evenodd" d="M534.287 118.065C541.08 111.509 551.901 111.702 558.457 118.495C561.58 121.732 563.172 125.882 563.248 130.05H571.992C571.915 123.696 569.509 117.357 564.749 112.424C554.84 102.156 538.483 101.865 528.215 111.773C523.044 116.764 520.403 123.39 520.322 130.05H529.066C529.147 125.679 530.893 121.34 534.287 118.065Z" fill="url(#paint7_angular_1347_408)"/>
<path fill-rule="evenodd" clip-rule="evenodd" d="M554.356 105.858C558.178 107.134 561.757 109.324 564.749 112.424C569.51 117.358 571.916 123.696 571.992 130.05H563.248C563.172 125.882 561.58 121.732 558.457 118.496C556.443 116.408 554.025 114.943 551.445 114.107L554.356 105.858Z" fill="url(#paint8_linear_1347_408)"/>
<path d="M564.185 118.623C564.148 118.573 564.095 118.538 564.035 118.526C563.973 118.512 563.91 118.521 563.857 118.552L544.22 129.416C544.191 129.433 544.166 129.454 544.144 129.48C544.124 129.506 544.108 129.535 544.099 129.568C544.091 129.6 544.088 129.633 544.091 129.667C544.095 129.699 544.105 129.732 544.121 129.76C544.138 129.789 544.159 129.814 544.185 129.836C544.211 129.856 544.24 129.872 544.273 129.881C544.305 129.889 544.338 129.892 544.372 129.889C544.404 129.885 544.437 129.875 544.465 129.859L544.503 129.838L547.092 133.062L547.078 133.075C547.054 133.097 547.034 133.125 547.02 133.156C547.007 133.184 546.999 133.218 546.997 133.251C546.996 133.284 547.001 133.317 547.014 133.348C547.025 133.379 547.043 133.408 547.066 133.431C547.088 133.457 547.115 133.477 547.145 133.489C547.176 133.504 547.208 133.512 547.241 133.512C547.276 133.513 547.308 133.508 547.34 133.496C547.37 133.485 547.399 133.467 547.423 133.444L564.155 118.964C564.202 118.92 564.23 118.862 564.236 118.799C564.241 118.737 564.223 118.673 564.185 118.623Z" fill="#CE2F55"/>
<path d="M547.299 136.414C550.114 135.67 551.793 132.783 551.048 129.967C550.303 127.151 547.417 125.472 544.602 126.216C541.787 126.961 540.108 129.848 540.853 132.664C541.598 135.48 544.484 137.159 547.299 136.414Z" fill="#FEEFD9"/>
<path d="M547.366 136.672C546.306 136.952 545.189 136.912 544.153 136.556C543.116 136.201 542.209 135.545 541.544 134.674C540.881 133.803 540.49 132.753 540.422 131.659C540.354 130.567 540.611 129.476 541.162 128.529C541.713 127.582 542.533 126.821 543.516 126.34C544.5 125.859 545.606 125.68 546.691 125.827C547.776 125.973 548.795 126.439 549.615 127.164C550.436 127.89 551.024 128.842 551.304 129.902C551.678 131.322 551.473 132.832 550.735 134.102C549.997 135.372 548.785 136.295 547.366 136.672ZM544.669 126.475C543.711 126.729 542.851 127.26 542.196 128.004C541.541 128.745 541.121 129.667 540.988 130.648C540.856 131.629 541.019 132.629 541.454 133.519C541.889 134.408 542.579 135.149 543.434 135.647C544.291 136.145 545.275 136.377 546.263 136.316C547.251 136.255 548.2 135.901 548.988 135.301C549.775 134.701 550.366 133.88 550.688 132.943C551.009 132.006 551.046 130.995 550.792 130.037C550.451 128.753 549.615 127.656 548.467 126.988C547.319 126.32 545.954 126.137 544.669 126.475Z" fill="#FF6633"/>
<path d="M546.547 133.571C547.792 133.242 548.535 131.965 548.205 130.72C547.876 129.474 546.599 128.732 545.354 129.061C544.109 129.39 543.367 130.667 543.696 131.913C544.025 133.158 545.302 133.901 546.547 133.571Z" fill="#FF6633"/>
<circle cx="546" cy="130.207" r="36.25" stroke="url(#paint9_linear_1347_408)" stroke-width="1.5"/>
<path d="M322.654 319.064C330.17 313.689 332.485 304.366 327.846 298.259C323.208 292.151 313.37 291.601 305.872 296.99C295.525 304.416 280.18 333.811 280.18 333.811C296.239 315.466 308.944 328.909 322.654 319.064Z" fill="url(#paint10_linear_1347_408)"/>
<path d="M311.523 297.614C316.115 294.735 323.214 293.669 326.853 299.208C330.112 304.17 327.54 310.753 321.322 314.916C309.857 322.591 294.237 317.551 294.237 317.551C310.203 310.77 300.281 304.662 311.523 297.614Z" fill="url(#paint11_linear_1347_408)"/>
<path d="M317.798 299.502C320.203 297.994 323.921 297.436 325.827 300.337C327.533 302.935 326.186 306.383 322.93 308.563C316.926 312.583 308.745 309.943 308.745 309.943C317.107 306.392 311.91 303.193 317.798 299.502Z" fill="white"/>
<path fill-rule="evenodd" clip-rule="evenodd" d="M344.124 305.096C356.946 307.252 368.517 305.615 377.977 299.638C387.436 293.662 393.883 283.914 397.442 271.41C384.62 269.254 373.049 270.891 363.589 276.868C354.13 282.844 347.683 292.592 344.124 305.096Z" fill="url(#paint12_linear_1347_408)"/>
<path fill-rule="evenodd" clip-rule="evenodd" d="M328.193 281.795C331.751 269.289 338.199 259.541 347.658 253.564C357.115 247.589 368.684 245.951 381.502 248.105C377.943 260.61 371.496 270.358 362.036 276.335C352.579 282.31 341.01 283.948 328.193 281.795Z" fill="url(#paint13_linear_1347_408)"/>
<path fill-rule="evenodd" clip-rule="evenodd" d="M404.702 246.223C410.951 243.947 416.965 241.013 422.687 237.398C428.009 234.036 432.907 230.191 437.38 225.915C431.13 228.192 425.116 231.125 419.394 234.741C414.072 238.103 409.174 241.947 404.702 246.223Z" fill="#C4C4C4"/>
<path fill-rule="evenodd" clip-rule="evenodd" d="M358.147 280.859C378.626 283.045 397.421 279.537 413.186 269.576C428.952 259.615 440.189 244.148 447.01 224.715C426.53 222.529 407.736 226.037 391.97 235.998C376.205 245.958 364.967 261.426 358.147 280.859Z" fill="url(#paint14_linear_1347_408)"/>
<path d="M358.147 280.859L358.046 281.801L356.857 281.674L357.253 280.546L358.147 280.859ZM447.01 224.715L447.11 223.773L448.299 223.9L447.903 225.028L447.01 224.715ZM358.247 279.918C378.557 282.085 397.129 278.602 412.68 268.776L413.692 270.377C397.713 280.473 378.695 284.004 358.046 281.801L358.247 279.918ZM412.68 268.776C428.232 258.95 439.352 243.674 446.116 224.401L447.903 225.028C441.026 244.622 429.671 260.281 413.692 270.377L412.68 268.776ZM446.909 225.656C426.599 223.489 408.028 226.972 392.476 236.798L391.464 235.197C407.444 225.101 426.461 221.57 447.11 223.773L446.909 225.656ZM392.476 236.798C376.924 246.624 365.804 261.9 359.04 281.173L357.253 280.546C364.13 260.952 375.485 245.293 391.464 235.197L392.476 236.798Z" fill="#911475"/>
<path d="M397.127 241.891C383.289 249.733 365.186 267.338 365.186 267.338L359.105 279.957C359.105 279.957 383.369 260.221 400.231 249.584C416.93 239.051 444.902 225.749 444.902 225.749C444.902 225.749 414.006 232.327 397.127 241.891Z" fill="white"/>
<path d="M404.966 256.207C391.558 265.014 369.433 276.695 369.433 276.695L357.816 280.765C357.816 280.765 385.061 265.192 402.074 254.437C418.921 243.786 444.432 226.039 444.432 226.039C444.432 226.039 421.319 245.465 404.966 256.207Z" fill="white"/>
<path d="M402.296 252.663C399.688 248.536 400.921 243.076 405.048 240.468C409.176 237.86 414.636 239.091 417.244 243.219C419.852 247.346 418.619 252.806 414.492 255.414C410.364 258.022 404.904 256.791 402.296 252.663Z" fill="#901475" stroke="white" stroke-width="2.8406"/>
<path d="M430.798 251.388C429.461 247.314 427.862 242.317 425.458 238.511C422.921 234.497 418.783 230.939 415.622 227.964" stroke="white" stroke-width="1.89373" stroke-linecap="round"/>
<path fill-rule="evenodd" clip-rule="evenodd" d="M335.775 293.82C342.691 286.623 350.998 279.811 360.461 273.831C369.927 267.851 379.649 263.274 389.12 260.118C382.204 267.315 373.897 274.128 364.434 280.107C354.968 286.087 345.247 290.665 335.775 293.82Z" fill="#CE2F55"/>
<path d="M432.423 252.326C432.423 252.326 431.502 245.693 426.515 237.8C421.528 229.906 415.425 225.937 415.425 225.937" stroke="#911475" stroke-width="1.89373"/>
<defs>
<linearGradient id="paint0_linear_1347_408" x1="397.75" y1="110.959" x2="604.25" y2="112.959" gradientUnits="userSpaceOnUse">
<stop stop-color="#CE2F55"/>
<stop offset="0.479175" stop-color="#FF6633"/>
<stop offset="1" stop-color="#F6821F"/>
</linearGradient>
<linearGradient id="paint1_linear_1347_408" x1="135.75" y1="161.959" x2="277.25" y2="161.959" gradientUnits="userSpaceOnUse">
<stop stop-color="#CE2F55"/>
<stop offset="0.484374" stop-color="#FF6633"/>
<stop offset="1" stop-color="#F6821F"/>
</linearGradient>
<linearGradient id="paint2_linear_1347_408" x1="370.448" y1="169.614" x2="370.448" y2="352.827" gradientUnits="userSpaceOnUse">
<stop stop-color="#BED8FF"/>
<stop offset="1" stop-color="white"/>
</linearGradient>
<linearGradient id="paint3_linear_1347_408" x1="239.669" y1="200.691" x2="482.169" y2="200.691" gradientUnits="userSpaceOnUse">
<stop stop-color="#5D0C83"/>
<stop offset="0.494791" stop-color="#960C3E"/>
<stop offset="1" stop-color="#FF6633"/>
</linearGradient>
<linearGradient id="paint4_linear_1347_408" x1="239.75" y1="200.959" x2="504.25" y2="203.959" gradientUnits="userSpaceOnUse">
<stop stop-color="#911475"/>
<stop offset="1" stop-color="#FF6633"/>
</linearGradient>
<linearGradient id="paint5_linear_1347_408" x1="224.071" y1="171.203" x2="184.989" y2="170.216" gradientUnits="userSpaceOnUse">
<stop stop-color="#F9AB41"/>
<stop offset="1" stop-color="#FF6633"/>
</linearGradient>
<linearGradient id="paint6_linear_1347_408" x1="564.008" y1="80.8701" x2="520.756" y2="182.759" gradientUnits="userSpaceOnUse">
<stop stop-color="#FBAD41"/>
<stop offset="0.542821" stop-color="#FF6633"/>
<stop offset="1" stop-color="#CE2F55"/>
</linearGradient>
<radialGradient id="paint7_angular_1347_408" cx="0" cy="0" r="1" gradientUnits="userSpaceOnUse" gradientTransform="translate(550.511 126.589) rotate(-62.1983) scale(18.0487 36.5409)">
<stop offset="0.126235" stop-color="#A8CBFF"/>
<stop offset="0.372738" stop-color="#A8CBFF" stop-opacity="0"/>
<stop offset="0.962949" stop-color="#6691FF"/>
</radialGradient>
<linearGradient id="paint8_linear_1347_408" x1="545.224" y1="105.944" x2="549.955" y2="141.231" gradientUnits="userSpaceOnUse">
<stop stop-color="#FBAD41"/>
<stop offset="0.348958" stop-color="#F6821F"/>
<stop offset="0.661103" stop-color="#FF6633"/>
<stop offset="0.965541" stop-color="#CE2F55"/>
</linearGradient>
<linearGradient id="paint9_linear_1347_408" x1="549.5" y1="93.207" x2="520.5" y2="182.707" gradientUnits="userSpaceOnUse">
<stop stop-color="#FF6633"/>
<stop offset="1" stop-color="#FBAD41"/>
</linearGradient>
<linearGradient id="paint10_linear_1347_408" x1="280.092" y1="319.911" x2="324.036" y2="292.147" gradientUnits="userSpaceOnUse">
<stop stop-color="#FBAD41"/>
<stop offset="0.581441" stop-color="#FF6633"/>
<stop offset="0.946033" stop-color="#CE2F55"/>
</linearGradient>
<linearGradient id="paint11_linear_1347_408" x1="293.922" y1="318.717" x2="327.272" y2="299.88" gradientUnits="userSpaceOnUse">
<stop stop-color="#FFBA00"/>
<stop offset="1" stop-color="#F3881B"/>
</linearGradient>
<linearGradient id="paint12_linear_1347_408" x1="397.441" y1="271.41" x2="344.125" y2="305.096" gradientUnits="userSpaceOnUse">
<stop stop-color="#90143B"/>
<stop offset="0.456439" stop-color="#CE2F55"/>
<stop offset="1" stop-color="#FF6633"/>
</linearGradient>
<linearGradient id="paint13_linear_1347_408" x1="381.503" y1="248.108" x2="328.191" y2="281.792" gradientUnits="userSpaceOnUse">
<stop stop-color="#90143B"/>
<stop offset="0.456439" stop-color="#CE2F55"/>
<stop offset="1" stop-color="#FF6633"/>
</linearGradient>
<linearGradient id="paint14_linear_1347_408" x1="447.01" y1="224.715" x2="358.147" y2="280.859" gradientUnits="userSpaceOnUse">
<stop stop-color="#6691FF"/>
<stop offset="0.80212" stop-color="white"/>
</linearGradient>
</defs>
</svg>
